<?xml version="1.0" standalone="no"?>
<!DOCTYPE svg PUBLIC "-//W3C//DTD SVG 1.1//EN" "http://www.w3.org/Graphics/SVG/1.1/DTD/svg11.dtd" >
<!--
2020-2-5: Created with FontForge (http://fontforge.org)
-->
<svg xmlns="http://www.w3.org/2000/svg" xmlns:xlink="http://www.w3.org/1999/xlink" version="1.1">
<metadata>
Created by FontForge 20170731 at Wed Feb  5 10:43:02 2020
 By root

</metadata>
<defs>
<font id="Flaticon" horiz-adv-x="512" >
  <font-face 
    font-family="Flaticon"
    font-weight="400"
    font-stretch="normal"
    units-per-em="512"
    panose-1="2 0 5 3 0 0 0 0 0 0"
    ascent="448"
    descent="-64"
    bbox="-0.00514929 -64.0222 513.002 452.566"
    underline-thickness="25.6"
    underline-position="-51.2"
    unicode-range="U+0020-F160"
  />
    <missing-glyph />
    <glyph glyph-name="space" unicode=" " horiz-adv-x="200" 
 />
    <glyph glyph-name="091-up-arrow-2" unicode="&#xf158;" 
d="M256.001 320.001l255.999 -256.002h-512z" />
    <glyph glyph-name="086-down-arrow-2" unicode="&#xf153;" 
d="M505.744 324.411c8.34082 -8.34082 8.34082 -21.8242 0.000976562 -30.165l-234.662 -234.662c-4.16016 -4.15918 -9.62109 -6.25098 -15.082 -6.25098c-5.46191 0 -10.9229 2.0918 -15.083 6.25098l-234.662 234.662c-8.34082 8.34082 -8.34082 21.8242 0 30.165
s21.8232 8.34082 30.1641 0l219.579 -219.58l219.581 219.58c8.34082 8.34082 21.8232 8.34082 30.1641 0z" />
    <glyph glyph-name="080-left-arrow-2" unicode="&#xf14d;" 
d="M206.682 191.892l191.325 -191.325c10.9189 -10.915 10.9189 -28.6885 0 -39.6074l-16.7793 -16.7754c-5.27344 -5.27832 -12.3047 -8.18359 -19.8057 -8.18359c-7.50488 0 -14.5352 2.90527 -19.8057 8.18359l-227.844 227.832
c-5.29492 5.29004 -8.18848 12.3457 -8.16699 19.8887c-0.0214844 7.50977 2.87598 14.5732 8.16699 19.8594l228.057 228.053c5.26953 5.27832 12.2998 8.18359 19.8008 8.18359s14.54 -2.90527 19.8057 -8.18359l16.7842 -16.7754
c5.27344 -5.26953 8.1748 -12.3008 8.1748 -19.8057c0 -7.50098 -2.90137 -14.5361 -8.1748 -19.7969z" />
    <glyph glyph-name="062-telephone" unicode="&#xf13b;" 
d="M498.807 70.2168c17.5605 -17.5303 17.6191 -46.0137 0 -63.6338l-10.6064 -10.6074l-127.284 127.277l10.6113 10.6104c17.0059 17.0068 46.6689 16.9785 63.6465 0zM339.115 102.631l126.997 -126.988c-67.2969 -57.7344 -162.072 -50.0605 -219.932 7.79688
l-199.103 199.19c-60.2949 60.2949 -62.4307 156.247 -7.7998 219.927l126.99 -126.983c-10.373 -13.3564 -9.95996 -32.4727 2.30273 -44.7354l125.817 -125.904c12.2344 -12.2617 31.3369 -12.6758 44.7266 -2.30273zM197.503 371.609
c17.5596 -17.5312 17.6172 -46.0146 0 -63.6328l-10.6074 -10.6084l-127.283 127.277l10.6104 10.6104c17.0059 17.0068 46.6689 16.9785 63.6475 0z" />
    <glyph glyph-name="083-left" unicode="&#xf150;" 
d="M153.436 192.005l227.608 -237.965c4.0625 -4.25977 3.91699 -11.0098 -0.333008 -15.083c-2.0625 -1.97949 -4.72949 -2.95801 -7.375 -2.95801c-2.8125 0 -5.60449 1.10352 -7.70898 3.29199l-234.671 245.338c-3.93652 4.12598 -3.93652 10.626 0 14.751
l234.671 245.337c4.10449 4.22949 10.8545 4.40625 15.084 0.333008c4.25 -4.07324 4.39551 -10.8232 0.333008 -15.083z" />
    <glyph glyph-name="013-24-hours-1" unicode="&#xf10a;" 
d="M399.809 361.754c41.4219 -41.4219 64.2305 -96.4922 64.2305 -155.07c0 -50.0312 -16.4062 -97.1484 -47.4492 -136.254c-24.1172 -30.3789 -56.0742 -53.8984 -91.8711 -67.9766l12.8555 -4.35156c7.85156 -2.65625 12.0664 -11.1758 9.41016 -19.0273
c-2.12109 -6.25781 -7.96094 -10.2031 -14.2188 -10.2031c-1.59766 0 -3.21875 0.253906 -4.8125 0.792969l-36.5117 12.3555c-6.67969 2.26172 -12.2305 7.21875 -15.2305 13.6016c-2.99609 6.38281 -3.26953 13.8203 -0.742188 20.4062l13.3438 34.7812
c2.96875 7.74219 11.6484 11.6055 19.3906 8.64062c7.74219 -2.96875 11.6094 -11.6523 8.64062 -19.3906l-3.81641 -9.94531c31.1914 12.1172 59.0547 32.5352 80.0469 58.9805c26.7852 33.7422 40.9453 74.4062 40.9453 117.59
c0 104.371 -84.9141 189.281 -189.285 189.281c-8.26953 0 -16.5508 -0.535156 -24.7188 -1.60156l-28.5 -75.1172c-18.6719 -41.3242 -49.457 -17.4531 -64.5117 -33.8633c-9.9375 -10.6328 -15.6602 -68.668 -16.2617 -81.4297
c-1.20312 -26.7383 7.22656 -96.6211 22.8867 -122.754c7.52734 -12.457 28.6055 -8.20312 37.9414 -7.90234c38.543 1.21484 34.0977 9.85938 42.2266 -17.793l24.6914 -82.6445c8.13281 -33.1211 -82.3594 -42.7109 -114.281 -33.5938
c-142.426 42.2344 -155.375 362.793 -74.375 471.266c28.0781 37.0938 152.348 54.8711 171.934 14.2617c7.62109 0.792969 15.3008 1.19531 22.9688 1.19531c58.5781 0 113.652 -22.8125 155.074 -64.2344zM399.809 361.754zM259.082 157.43
c8.28906 0 15.0078 -6.72266 15.0078 -15.0117s-6.71875 -15.0078 -15.0078 -15.0078h-39.4844c-15.1602 0 -27.4961 12.332 -27.4961 27.4922v27c0 15.1602 12.3359 27.4922 27.4961 27.4922h24.4727v21.9492h-36.957c-8.28906 0 -15.0117 6.71875 -15.0117 15.0078
s6.72266 15.0117 15.0117 15.0117h39.4844c15.1602 0 27.4922 -12.332 27.4922 -27.4961v-26.9961c0 -15.1602 -12.332 -27.4961 -27.4922 -27.4961h-24.4727v-21.9453h36.957zM259.082 157.43zM301.789 261.363c8.28906 0 15.0117 -6.71875 15.0117 -15.0078v-36.957
h21.9453v36.957c0 8.28906 6.72266 15.0078 15.0117 15.0078s15.0117 -6.71875 15.0117 -15.0078v-103.934c0 -8.29297 -6.72266 -15.0117 -15.0117 -15.0117s-15.0117 6.71875 -15.0117 15.0117v36.9531h-24.4727c-15.1602 0 -27.4922 12.3359 -27.4922 27.4961v39.4844
c0 8.28906 6.71875 15.0078 15.0078 15.0078zM301.789 261.363z" />
    <glyph glyph-name="031-download-2" unicode="&#xf11c;" 
d="M240.915 27.582l-149.333 149.333c-8.33105 8.33105 -8.33105 21.8389 0 30.1699s21.8389 8.33105 30.1699 0l112.915 -112.915v332.497c0 11.7822 9.55078 21.333 21.333 21.333s21.333 -9.55078 21.333 -21.333v-332.497l112.916 112.915
c8.33105 8.33105 21.8389 8.33105 30.1699 0s8.33105 -21.8389 0 -30.1699l-149.333 -149.333c-0.00390625 -0.00390625 -0.0078125 -0.00683594 -0.0117188 -0.0107422c-0.493164 -0.493164 -1.0127 -0.958984 -1.55078 -1.40234
c-0.24707 -0.203125 -0.508789 -0.379883 -0.762695 -0.570312c-0.302734 -0.226562 -0.599609 -0.461914 -0.915039 -0.672852c-0.303711 -0.203125 -0.619141 -0.378906 -0.930664 -0.564453c-0.286133 -0.169922 -0.56543 -0.350586 -0.859375 -0.507812
c-0.317383 -0.169922 -0.644531 -0.313477 -0.969727 -0.466797c-0.305664 -0.144531 -0.608398 -0.297852 -0.921875 -0.427734c-0.31543 -0.129883 -0.636719 -0.235352 -0.957031 -0.349609c-0.335938 -0.121094 -0.668945 -0.25 -1.0127 -0.354492
c-0.320312 -0.0966797 -0.646484 -0.167969 -0.969727 -0.249023c-0.350586 -0.0888672 -0.697266 -0.186523 -1.05566 -0.257812c-0.375 -0.0742188 -0.75293 -0.118164 -1.12988 -0.171875c-0.311523 -0.0449219 -0.618164 -0.104492 -0.932617 -0.134766
c-1.40039 -0.138672 -2.81152 -0.138672 -4.21191 0c-0.314453 0.0302734 -0.621094 0.0908203 -0.932617 0.134766c-0.376953 0.0537109 -0.754883 0.0976562 -1.12988 0.171875c-0.358398 0.0712891 -0.705078 0.168945 -1.05566 0.257812
c-0.324219 0.0810547 -0.649414 0.152344 -0.969727 0.249023c-0.34375 0.104492 -0.675781 0.233398 -1.0127 0.354492c-0.320312 0.113281 -0.641602 0.219727 -0.957031 0.349609c-0.313477 0.129883 -0.616211 0.283203 -0.921875 0.427734
c-0.325195 0.15332 -0.652344 0.296875 -0.969727 0.466797c-0.293945 0.157227 -0.573242 0.336914 -0.859375 0.507812c-0.311523 0.185547 -0.626953 0.361328 -0.930664 0.564453c-0.31543 0.210938 -0.612305 0.446289 -0.915039 0.672852
c-0.253906 0.191406 -0.515625 0.367188 -0.762695 0.570312c-0.538086 0.443359 -1.05762 0.910156 -1.55078 1.40234c-0.00390625 0.00390625 -0.0078125 0.00683594 -0.0117188 0.0107422zM405.333 -21.333c11.7822 0 21.334 -9.55176 21.334 -21.334
s-9.55078 -21.333 -21.333 -21.333h-298.667c-11.7822 0 -21.333 9.55176 -21.333 21.334s9.55078 21.333 21.333 21.333h298.666z" />
    <glyph glyph-name="090-up-arrow-1" unicode="&#xf157;" 
d="M256 0c-8.83203 0 -16 7.16797 -16 16v319.696l-116.408 -122.736c-6.08789 -6.40039 -16.2236 -6.64844 -22.624 -0.551758c-6.39941 6.0957 -6.64746 16.2236 -0.551758 22.624l132.688 139.312c6.3125 6.32031 14.3447 9.65625 22.8965 9.65625
s16.584 -3.33594 22.6318 -9.37598l132.952 -139.584c6.0957 -6.40039 5.84766 -16.5283 -0.551758 -22.624c-3.09668 -2.95215 -7.07227 -4.41602 -11.0322 -4.41602c-4.22363 0 -8.44043 1.66406 -11.584 4.96777l-116.416 122.225v-319.192
c0 -8.83203 -7.16797 -16 -16 -16z" />
    <glyph glyph-name="034-loupe" unicode="&#xf11f;" 
d="M493.806 44.5283c22.9824 -25.5361 22.9824 -63.8398 0 -89.376c-25.5361 -25.5361 -63.8408 -25.5361 -89.377 0l-84.2695 84.2695c-30.6426 -15.3223 -66.3936 -25.5361 -102.145 -25.5361c-120.02 0 -217.057 97.0371 -217.057 217.057
c0 120.021 97.0371 217.058 217.057 217.058c120.021 0 217.058 -97.0371 217.058 -217.058c0 -35.75 -10.2148 -71.501 -25.5361 -102.145zM218.015 64.958c91.9307 0 165.985 74.0547 165.985 165.984c0 91.9307 -74.0547 165.985 -165.985 165.985
c-91.9297 0 -165.984 -74.0547 -165.984 -165.985c0 -91.9297 74.0547 -165.984 165.984 -165.984z" />
    <glyph glyph-name="026-add" unicode="&#xf117;" 
d="M255.501 447.501c81.4482 0 147.711 -66.2627 147.711 -147.711s-66.2627 -147.712 -147.711 -147.712c-118.871 0 -215.579 -96.708 -215.579 -215.579h-39.9219c0 68.2471 26.5771 132.408 74.8359 180.668c27.8281 27.8281 60.9521 48.4277 97.0908 60.8994
c-38.708 26.6582 -64.1367 71.2744 -64.1367 121.724c0 81.4473 66.2627 147.711 147.711 147.711zM255.501 192c59.4346 0 107.789 48.3525 107.789 107.789c0 59.4355 -48.3545 107.79 -107.789 107.79s-107.789 -48.3555 -107.789 -107.79
c0 -59.4355 48.3545 -107.789 107.789 -107.789zM428.164 60.2568h83.8359v-39.9219h-83.8359v-83.8359h-39.9219v83.8359h-83.8369v39.9219h83.8369v83.8369h39.9219v-83.8369z" />
    <glyph glyph-name="057-mail" unicode="&#xf136;" 
d="M293.408 109.248l122.592 81.0244v-157.44zM0 190.272l122.592 -81.0244l-122.592 -76.416v157.44zM264.064 89.8564l151.071 -94.1768c-2.20801 -15.5195 -15.0078 -27.6797 -31.1357 -27.6797h-352c-16.1279 0 -28.9277 12.1602 -31.1035 27.6797l151.071 94.1768
l47.2324 -31.2002c2.65625 -1.79199 5.72754 -2.65625 8.7998 -2.65625s6.14355 0.864258 8.7998 2.65625zM384 256c16.2236 0 29.1201 -12.2881 31.168 -27.9355l-207.168 -136.864l-207.168 136.864c2.04785 15.6475 14.9443 27.9355 31.168 27.9355h352zM96 350.272
l94.2402 -62.2725h-94.2402v62.2725zM480 416c16.2236 0 29.1201 -12.2881 31.168 -27.9355l-151.456 -100.064h-111.424l-151.456 100.064c2.04785 15.6475 14.9443 27.9355 31.168 27.9355h352zM448 195.04l63.1357 -39.3604
c-2.20801 -15.5195 -15.0078 -27.6797 -31.1357 -27.6797h-32v67.04zM414.176 285.632l97.8242 64.6084v-157.44l-64 39.9043v7.2959c0 21.5361 -14.2725 39.5518 -33.8242 45.6318z" />
    <glyph glyph-name="087-down-arrow-3" unicode="&#xf154;" 
d="M256 384c8.83203 0 16 -7.16797 16 -16v-319.704l116.416 122.736c6.0957 6.39941 16.2236 6.65625 22.6162 0.551758c6.3916 -6.0957 6.64746 -16.2158 0.551758 -22.6162l-132.688 -139.312c-6.3125 -6.32812 -14.3525 -9.65625 -22.8965 -9.65625
c-8.55176 0 -16.584 3.32812 -22.6318 9.37598l-132.96 139.592c-6.09668 6.40039 -5.84863 16.5205 0.551758 22.6162c6.41602 6.10449 16.5361 5.83984 22.624 -0.551758l116.416 -122.225v319.192c0 8.83203 7.16797 16 16 16z" />
    <glyph glyph-name="038-zoom-out-1" unicode="&#xf123;" 
d="M88.751 199.389c4.2002 -4.2002 4.2002 -11.0293 -0.000976562 -15.2295l-32.3125 -32.3125c-2.06836 -2.09082 -4.82422 -3.14551 -7.58203 -3.14551s-5.51465 1.05566 -7.62598 3.14551l-32.3125 32.3125c-4.2002 4.2002 -4.2002 11.0293 0 15.2295
c4.20117 4.20117 11.0303 4.20117 15.2305 0l24.6865 -24.6865l24.6865 24.6865c4.20117 4.20117 11.0293 4.20117 15.2305 0zM88.7939 91.6807c4.20117 -4.2002 4.20117 -11.0283 0 -15.2305c-2.11133 -2.08984 -4.86816 -3.14453 -7.625 -3.14453
c-2.75781 0 -5.51465 1.05566 -7.62598 3.14453l-24.6865 24.6875l-24.6865 -24.6875c-4.20117 -4.2002 -11.0303 -4.2002 -15.2305 0c-4.2002 4.20117 -4.2002 11.0303 0 15.2305l32.3125 32.3125c4.2002 4.2002 11.0293 4.2002 15.2305 0zM470.77 302.099
c26.582 -26.582 41.2305 -61.9316 41.2295 -99.5439c0 -37.6113 -14.6484 -72.9609 -41.2305 -99.543l-38.085 -38.0859c-22.3818 -22.3809 -52.1299 -34.7031 -83.7754 -34.7031c-26.5166 0 -52.7979 -3.91992 -78.1309 -11.6533l-166.883 -50.8594
c-3.5127 -1.22852 -7.15234 -1.85352 -10.7715 -1.85352c-4.65332 0 -9.28418 1.0127 -13.6357 3.03711c-7.81934 3.64062 -13.7432 10.124 -16.6943 18.2461c-10.2314 28.0898 1.93848 59.8857 28.2842 73.9736l101.612 57.7969l-178.364 178.364
c-9.24121 9.21875 -14.3252 21.4971 -14.3252 34.5303s5.08398 25.3115 14.3252 34.5527c9.99512 9.99512 23.2432 14.5625 37.1807 12.8818c14.3682 -1.74512 28.7148 -9.69336 42.6748 -23.6523l36.1895 -36.1904c1.78711 9.24219 6.24609 18.0732 13.3984 25.2256
c17.8799 17.9004 48.748 18.5469 67.3389 1.65918c1.80957 9.52051 6.41992 18.2676 13.4209 25.2676c16.7803 16.7812 42.8027 18.8057 61.8027 6.01074c1.63672 9.62891 6.16016 18.8701 13.5918 26.3018c19.043 19.043 50.041 19.043 69.084 0zM455.518 118.241
c22.5107 22.5117 34.9189 52.4756 34.9209 84.3154c0 31.8389 -12.4082 61.8037 -34.918 84.3135l-101.763 101.763c-10.6426 10.6426 -27.9824 10.6426 -38.625 0c-10.6416 -10.6416 -10.6416 -27.9824 0 -38.624l10.5771 -10.5771
c2.11133 -2.11133 3.14551 -4.86816 3.14551 -7.62598s-1.05566 -5.51367 -3.14551 -7.62598c-4.2002 -4.2002 -11.0293 -4.2002 -15.2295 0l-32.1191 32.1191c-10.6416 10.6416 -27.9824 10.6416 -38.624 0s-10.6416 -27.9824 0 -38.625l32.1182 -32.1182
c2.11133 -2.11133 3.14551 -4.86816 3.14551 -7.62598c0 -2.75684 -1.05566 -5.51367 -3.14551 -7.625c-4.2002 -4.20117 -11.0293 -4.20117 -15.2295 0l-59.0244 59.0879c-10.6416 10.6416 -27.9824 10.6416 -38.624 0s-10.6416 -27.9824 0 -38.624l59.0459 -59.0459
c2.11133 -2.11133 3.14551 -4.86816 3.14551 -7.62598s-1.05664 -5.51465 -3.14551 -7.62598c-4.2002 -4.2002 -11.0293 -4.2002 -15.2305 0l-123.864 123.864c-11.6543 11.6748 -23.1787 17.6641 -33.1309 17.6641c-6.11816 0 -11.6553 -2.26172 -16.2646 -6.87109
c-10.6416 -10.6426 -10.6416 -27.9824 0 -38.625l188.361 -188.358c2.36816 -2.37012 3.51074 -5.72949 3.05859 -9.04785c-0.453125 -3.31738 -2.43457 -6.26855 -5.36426 -7.92676l-114.127 -64.9043c-17.2129 -9.19824 -25.0537 -29.6631 -18.4619 -47.7578
c0.991211 -2.69336 2.97266 -4.86816 5.5791 -6.0752c2.60645 -1.22754 5.51465 -1.35645 8.22852 -0.366211c0.171875 0.0644531 0.365234 0.128906 0.538086 0.172852l167.121 50.9453c27.3779 8.33594 55.7705 12.5801 84.4209 12.5801
c25.8926 0 50.2354 10.082 68.5449 28.3916z" />
    <glyph glyph-name="081-left-arrow-3" unicode="&#xf14e;" 
d="M432 208c8.83203 0 16 -7.16797 16 -16s-7.16797 -16 -16 -16h-319.696l122.736 -116.416c6.40039 -6.0957 6.64844 -16.2158 0.551758 -22.6162c-3.14355 -3.30371 -7.36816 -4.96777 -11.5918 -4.96777c-3.96777 0 -7.93555 1.46387 -11.0322 4.41602l-139.312 132.688
c-6.32031 6.3125 -9.65625 14.3525 -9.65625 22.8965c0 8.55176 3.33594 16.584 9.37598 22.6318l139.584 132.96c6.4082 6.09668 16.5361 5.83984 22.624 -0.551758c6.0957 -6.40039 5.84766 -16.5283 -0.551758 -22.624l-122.225 -116.416h319.192z" />
    <glyph glyph-name="098-tripadvisor-1" unicode="&#xf15e;" 
d="M128 288.766c70.5918 0 128 -57.4072 128 -128c0 -70.5918 -57.4082 -128 -128 -128s-128 57.4082 -128 128c0 28.6729 9.53613 56 27.04 78.2402c-8.48047 12.9922 -19.4238 20.1279 -19.5518 20.2246c-6.04785 3.77539 -8.83203 11.1035 -6.84863 17.9834
c1.98438 6.84766 8.22461 11.5518 15.3604 11.5518h112zM128 64.7656c52.9277 0 96 43.0723 96 96c0 52.9287 -43.0723 96 -96 96h-74.3359c2.65625 -4 5.15234 -8.44727 7.32812 -13.248c2.6875 -5.95117 1.50391 -12.8955 -3.00781 -17.6318
c-16.7363 -17.5996 -25.9844 -40.7354 -25.9844 -65.1201c0 -52.9277 43.0723 -96 96 -96zM301.536 109.694c7.16797 -5.18457 8.7041 -15.2002 3.51953 -22.3359l-34.8154 -48c-2.91211 -4.06445 -7.61621 -6.49609 -12.6406 -6.59277h-0.288086
c-4.92773 0 -9.56738 2.27246 -12.6074 6.14453l-37.4404 48c-5.43945 6.97559 -4.19141 17.0234 2.75195 22.4639c6.94434 5.47168 17.0244 4.19238 22.4648 -2.78418l24.3516 -31.2314l22.3359 30.7832c5.24805 7.23242 15.2324 8.7041 22.3682 3.55273zM426.784 284.574
c6.52734 -5.95215 7.00781 -16.0645 1.02344 -22.5918c-3.13574 -3.45605 -7.45605 -5.2168 -11.8076 -5.2168c-3.83984 0 -7.71191 1.37598 -10.7842 4.19238c-85.0557 77.6641 -213.344 77.6641 -298.432 0c-6.52832 -5.95215 -16.6406 -5.53613 -22.5918 1.02441
c-5.98438 6.52734 -5.50391 16.6396 1.02344 22.5918c97.3438 88.8955 244.225 88.8643 341.568 0zM128 224.766c35.2959 0 64 -28.7041 64 -64s-28.7041 -64 -64 -64s-64 28.7041 -64 64s28.7041 64 64 64zM128 128.766c17.6318 0 32 14.3359 32 32
c0 17.6328 -14.3682 32 -32 32s-32 -14.3672 -32 -32c0 -17.6641 14.3682 -32 32 -32zM128.64 176.766c8.83203 0 16 -7.16797 16 -16s-7.16797 -16 -16 -16s-16.1592 7.16797 -16.1592 16s7.00781 16 15.8398 16h0.319336zM484.928 239.006
c17.5361 -22.2402 27.0723 -49.5996 27.0723 -78.2402c0 -70.5918 -57.4082 -128 -128 -128s-128 57.4082 -128 128c0 70.5928 57.4082 128 128 128h112c7.13574 0 13.4082 -4.7041 15.3604 -11.5518c1.9834 -6.84766 -0.800781 -14.1758 -6.84863 -17.9834
c-0.0957031 -0.0322266 -11.1035 -7.26465 -19.584 -20.2246zM384 64.7656c52.9277 0 96 43.0723 96 96c0 24.3848 -9.21582 47.4883 -25.9844 65.1201c-4.51172 4.7041 -5.66406 11.6807 -3.00781 17.6318c2.17578 4.80078 4.67188 9.24805 7.32812 13.248h-74.3359
c-52.9277 0 -96 -43.0713 -96 -96c0 -52.9277 43.0723 -96 96 -96zM384 224.766c35.2959 0 64 -28.7041 64 -64s-28.7041 -64 -64 -64s-64 28.7041 -64 64s28.7041 64 64 64zM384 128.766c17.6641 0 32 14.3359 32 32c0 17.6328 -14.3359 32 -32 32s-32 -14.3672 -32 -32
c0 -17.6641 14.3359 -32 32 -32zM384.64 176.766c8.83203 0 16 -7.16797 16 -16s-7.16797 -16 -16 -16c-8.7998 0 -16.1592 7.16797 -16.1592 16s7.00781 16 15.8398 16h0.319336z" />
    <glyph glyph-name="004-youtube-1" unicode="&#xf103;" 
d="M470.569 399.927c10.293 -37.5957 9.89648 -115.959 9.89648 -115.959s0 -77.9648 -9.89062 -115.563c-5.54297 -20.5801 -21.7686 -36.8057 -42.3525 -42.3457c-37.5977 -9.89746 -187.988 -9.89746 -187.988 -9.89746s-150 0 -187.991 10.29
c-20.583 5.54297 -36.8066 21.7686 -42.3486 42.3496c-9.89453 37.2021 -9.89453 115.562 -9.89453 115.562s0 77.9678 9.89453 115.563c5.53613 20.5811 22.1611 37.2051 42.3457 42.7422c37.5986 9.89746 187.988 9.89746 187.988 9.89746s150.396 0 187.994 -10.2881
c20.5811 -5.54199 36.8096 -21.7676 42.3467 -42.3516zM192.346 212.334l125.062 72.0293l-125.062 72.0293v-144.059zM192.346 212.334z" />
    <glyph glyph-name="011-delivery" unicode="&#xf108;" 
d="M129.171 260.014c-1.54785 -1.97363 -4.33398 -3.37207 -8.28418 -4.1543l-11.9121 -2.36523l-3.90234 19.6611l12.1699 2.41504c3.74219 0.743164 6.77246 0.391602 8.99121 -1.05176c2.23633 -1.45605 3.62891 -3.7002 4.25684 -6.86133
c0.635742 -3.2002 0.205078 -5.70117 -1.31934 -7.64355zM472.049 215.592c15.9082 -3.33789 39.9512 -8.38184 39.9492 -51.085v-53.9492c0 -17.3389 -14.1064 -31.4443 -31.4463 -31.4443h-44.8467c-4.67676 -33.0732 -33.1611 -58.5977 -67.5088 -58.5977
c-34.3809 0 -62.8848 25.5771 -67.5176 58.6973c-0.772461 -0.0585938 -1.54102 -0.0996094 -2.29297 -0.0996094h-114.107c-4.67676 -33.0732 -33.1602 -58.5977 -67.5088 -58.5977c-34.3457 0 -62.8271 25.5254 -67.5039 58.5977h-31.3154
c-9.89746 0 -17.9502 8.05273 -17.9502 17.9502v248.317c0 10.1514 7.25586 17.8057 16.8779 17.8057l286.397 0.298828c9.90039 0 17.9531 -8.05273 17.9531 -17.9502v-33.1719h43.1475c16.6777 0 36.4883 -12.0498 44.1592 -26.8594l24.0361 -48.6631
c6.40332 -12.3643 15.542 -15.2178 33.9609 -20.0078c1.66699 -0.433594 3.53711 -0.826172 5.5166 -1.24121zM50.0518 228.386l31.7295 6.29883l-2.79785 14.0986l-31.7305 -6.29883l-3.66504 18.4639l37.0361 7.35254l-2.79883 14.0967l-54.6182 -10.8418
l15.5088 -78.1309l17.583 3.49023zM116.771 63.4326c13.9365 0 25.2744 11.334 25.2744 25.2656s-11.3379 25.2656 -25.2744 25.2656c-13.9307 0 -25.2637 -11.334 -25.2637 -25.2656s11.333 -25.2656 25.2637 -25.2656zM145.764 214.677l17.2764 3.43066l-0.568359 2.86426
l-0.521484 0.269531c-1.35547 0.704102 -2.50391 2.04199 -3.41309 3.97656c-0.983398 2.08984 -1.68457 4.16895 -2.08301 6.17969l-1.10449 5.56641c-0.945312 4.75195 -2.80371 8.6084 -5.52539 11.4648c-2.20996 2.31641 -5.16992 3.87012 -8.82324 4.63477
c2.5791 2.19727 4.50293 4.64453 5.7334 7.30176c1.59082 3.44043 1.98047 7.29297 1.15527 11.4512c-1.4668 7.38477 -5.23633 12.7197 -11.207 15.8545c-5.87891 3.08789 -13.3604 3.76172 -22.2383 1.99902l-29.7539 -5.90625l15.5098 -78.1309l17.584 3.49023
l-6.00977 30.2734l13.2627 2.63281c3.39355 0.673828 6.21973 0.263672 8.41211 -1.22949c2.19434 -1.49512 3.65332 -3.99414 4.33496 -7.43066l1.06445 -5.3584c0.47168 -2.37598 1.19238 -4.88184 2.14355 -7.44922c1.03711 -2.80078 2.51465 -4.71484 4.39258 -5.68848z
M170.631 219.612l54.2559 10.7686l-2.79883 14.0986l-36.6719 -7.2793l-3.81055 19.1924l31.3662 6.22656l-2.79785 14.0986l-31.3662 -6.22656l-3.30371 16.6445l36.5664 7.25879l-2.79785 14.0977l-54.1514 -10.75zM231.803 231.756l54.2549 10.7695l-2.79883 14.0986
l-36.6699 -7.2793l-3.81055 19.1924l31.3652 6.22656l-2.79688 14.0986l-31.3652 -6.22656l-3.30566 16.6436l36.5674 7.25879l-2.79883 14.0977l-54.1514 -10.75zM368.197 63.4326c13.9365 0 25.2744 11.334 25.2744 25.2656s-11.3379 25.2656 -25.2744 25.2656
c-13.9316 0 -25.2646 -11.334 -25.2646 -25.2656s11.333 -25.2656 25.2646 -25.2656zM321.229 219.459h90.3223c-0.603516 0.952148 -1.17969 1.95898 -1.73145 3.02441l-21.3887 43.3037c-5.81152 11.2139 -21.46 20.7334 -34.1465 20.7334h-33.0557v-67.0615z" />
    <glyph glyph-name="035-zoom-in" unicode="&#xf120;" 
d="M202.611 363.891c0.699219 -5.79688 -3.49902 -11.1943 -9.2959 -11.8936l-148.927 -18.5908l27.2861 -27.1875c4.19824 -4.19727 4.19824 -10.8945 0 -15.0918c-2.09863 -2.09961 -4.79785 -3.09863 -7.5957 -3.09863c-2.79883 0 -5.49805 0.999023 -7.59668 3.09863
l-42.6787 42.6787c-0.300781 0.299805 -0.600586 0.599609 -0.799805 0.899414l-0.100586 0.100586c-0.199219 0.199219 -0.399414 0.399414 -0.499023 0.599609c0 0.0996094 -0.100586 0.0996094 -0.100586 0.199219
c-0.0996094 0.200195 -0.199219 0.400391 -0.299805 0.599609c0 0.100586 -0.0996094 0.200195 -0.0996094 0.300781c-0.0996094 0.199219 -0.200195 0.399414 -0.299805 0.599609c0 0.0996094 -0.100586 0.199219 -0.100586 0.299805
c-0.0996094 0.199219 -0.0996094 0.399414 -0.199219 0.599609c0 0 -0.100586 0.0996094 -0.100586 0.199219c-0.0996094 0.200195 -0.0996094 0.5 -0.199219 0.799805c-0.200195 1 -0.299805 1.99902 -0.200195 3.09863c0.200195 1.59961 0.599609 3.19824 1.49902 4.59766
l31.9844 53.2744c2.99902 4.99707 9.5957 6.59668 14.5928 3.59766c5.09766 -2.99805 6.69727 -9.49512 3.69824 -14.5928l-20.6895 -34.4824l148.827 18.6904c5.69727 0.599609 11.1943 -3.39844 11.8945 -9.2959zM501.165 395.775
c0.299805 -2.69824 -0.399414 -5.19727 -1.79883 -6.99609l-31.6846 -52.7744c-1.99902 -3.39844 -5.49707 -5.19727 -9.0957 -5.19727c-1.89941 0 -3.79785 0.499023 -5.49707 1.49902c-5.09766 2.99805 -6.69727 9.49512 -3.69824 14.5928l20.79 34.6826l-159.622 -18.79
c-0.400391 -0.100586 -0.899414 -0.100586 -1.2998 -0.100586c-5.39746 0 -9.99512 3.99805 -10.5947 9.39551c-0.699219 5.79688 3.39844 11.0947 9.2959 11.7939l159.422 18.791l-27.0869 27.0869c-4.19824 4.19824 -4.19824 10.8945 0 15.0928s10.8945 4.19824 15.0928 0
l42.6787 -42.6787c0.100586 -0.200195 0.299805 -0.300781 0.400391 -0.5l0.0996094 -0.100586c0.400391 -0.499023 0.799805 -0.999023 1.09961 -1.59863c0.0996094 -0.200195 0.200195 -0.299805 0.299805 -0.5
c0.0996094 -0.0996094 0.0996094 -0.200195 0.200195 -0.299805c0.0996094 -0.200195 0.199219 -0.5 0.299805 -0.699219v-0.100586c0.399414 -0.899414 0.599609 -1.69922 0.699219 -2.59863zM413.608 104.317c15.9922 -15.9922 15.9922 -41.7793 0.0996094 -57.6719
l-88.0566 -80.1602c-21.5898 -19.6904 -49.6758 -30.4854 -78.8623 -30.4854c-31.2842 0 -60.7695 12.1943 -82.8594 34.2832l-33.4834 33.584c-22.1895 22.1885 -34.3828 51.5742 -34.3828 82.959v201.102c0 17.5918 14.3926 31.9844 31.9844 31.9844
c23.5879 0 43.7783 -17.5908 47.0762 -40.8799l13.4941 -86.0576l145.129 145.229c15.8926 15.8926 41.6797 15.8926 57.5723 0c15.9922 -15.9922 15.9922 -41.7793 0.0996094 -57.6709l-37.7812 -37.7822c6.39648 -1.89844 12.2939 -5.39746 17.1914 -10.2949
c14.6924 -14.6924 15.8916 -37.5811 3.79785 -53.5732c6.59668 -1.89941 12.6943 -5.39746 17.5918 -10.3955c14.6924 -14.6924 15.8916 -37.5811 3.79785 -53.5732c6.59668 -1.89941 12.5938 -5.49805 17.5918 -10.5957zM399.016 62.1387
c7.19629 7.2959 7.19629 19.5898 -0.400391 27.1865c-7.5957 7.49609 -20.1904 7.39648 -27.5859 0.0996094l-0.900391 -0.899414c-4.19727 -4.19824 -10.8945 -4.19824 -15.0918 0c-4.19824 4.19824 -4.19824 10.8945 0 15.0928l0.0996094 0.0996094l5.29688 5.29785
l16.8926 16.792c7.5957 7.5957 7.5957 19.8896 0 27.4863c-7.59668 7.49609 -20.29 7.39648 -27.5869 0.0996094l-16.792 -16.792l-5.39746 -5.39648c-4.19727 -4.19824 -10.8945 -4.19824 -15.0928 0c-4.19727 4.19727 -4.19727 10.8945 0 15.0918l5.39746 5.39746
l38.1816 38.082c7.59668 7.5957 7.59668 19.8896 0 27.4863c-7.59668 7.49609 -20.29 7.39648 -27.5869 0.0996094l-43.5781 -43.5781c-4.19824 -4.19824 -10.8945 -4.19824 -15.0928 0c-4.19824 4.19727 -4.19824 10.8945 0 15.0928l106.848 106.647
c7.59668 7.59668 7.59668 19.8906 0 27.4863c-7.69629 7.69629 -19.9902 7.69629 -27.5859 0.100586l-160.022 -160.022c-2.89844 -2.79883 -7.09668 -3.89746 -10.8945 -2.59863c-3.79785 1.2998 -6.59668 4.49805 -7.19629 8.49609l-16.792 106.947
c-1.89941 12.9941 -12.9941 22.6895 -25.9873 22.6895c-5.89746 0 -10.6943 -4.79785 -10.6943 -10.6953v-201.001c0 -25.6875 9.99512 -49.7764 28.0859 -67.8672l33.4834 -33.584c18.0908 -18.0908 42.1797 -28.0859 67.7666 -28.0859
c23.8887 0 46.7773 8.7959 64.4688 24.8877z" />
    <glyph glyph-name="042-check" unicode="&#xf127;" 
d="M196.437 56.8389c-4.89648 -4.9248 -11.5781 -7.67383 -18.5176 -7.67383c-6.94043 0 -13.6221 2.74902 -18.5186 7.67383l-147.89 147.914c-15.3477 15.3477 -15.3477 40.2354 0 55.5537l18.5176 18.5234c15.3525 15.3477 40.2119 15.3477 55.5596 0l92.3311 -92.3359
l249.491 249.496c15.3525 15.3477 40.2354 15.3477 55.5586 0l18.5176 -18.5225c15.3486 -15.3477 15.3486 -40.2305 0 -55.5537zM196.437 56.8389z" />
    <glyph glyph-name="088-down-arrow-4" unicode="&#xf155;" 
d="M460.663 168.548c10.9219 -10.918 10.9219 -28.6885 0 -39.6025l-184.758 -184.77c-5.26172 -5.26172 -12.3047 -8.17578 -19.8008 -8.17578h-0.0791016c-7.55566 0 -14.6152 2.91406 -19.877 8.17578l-184.794 184.773
c-10.915 10.918 -10.9609 28.6807 -0.0458984 39.5986l16.6787 16.7754c5.27051 5.27441 12.1133 8.19238 19.6064 8.19238c7.50098 0 14.1357 -2.91797 19.4102 -8.19238l108.215 -109.006v343.664c0 15.4434 14.124 28.0186 29.5586 28.0186h23.7314
c15.4385 0 26.7109 -12.5752 26.7109 -28.0186v-342.444l108.432 107.786c5.26562 5.27441 12.9414 8.19238 20.4424 8.19238c7.49316 0 14.5322 -2.91797 19.7979 -8.19238z" />
    <glyph glyph-name="082-return" unicode="&#xf14f;" 
d="M288.502 415.498c123.233 0 223.498 -100.265 223.498 -223.498s-100.265 -223.498 -223.498 -223.498v34.3838c104.271 0 189.114 84.8428 189.114 189.114s-84.8428 189.114 -189.114 189.114c-94.3848 0 -172.592 -69.5596 -186.655 -160.06l75.8008 37.8926
l15.3867 -30.7568l-103.153 -51.5771c-2.45898 -1.2207 -5.08887 -1.80566 -7.68457 -1.80566c-5.08887 0 -10.0752 2.26953 -13.4277 6.44727l-68.7686 85.9609l26.8535 21.4902l42.4824 -53.1074c20.3389 102.414 110.838 179.899 219.166 179.899z" />
    <glyph glyph-name="059-sms" unicode="&#xf138;" 
d="M457 417.128c30.3271 0 55 -24.6719 55 -54.999v-264c0 -30.3271 -24.6729 -55 -55 -55h-128.785c-1.5625 0 -3.05762 -0.746094 -3.99707 -1.99609l-48.3252 -64.2842c-4.76953 -6.34473 -12.0469 -9.97656 -19.9785 -9.97656h-0.120117
c-7.97754 0.0371094 -15.2686 3.74023 -20.0039 10.1611l-47.2529 64.0625c-0.939453 1.27344 -2.44238 2.03223 -4.02344 2.03223h-129.514c-30.3271 0 -55 24.6729 -55 55v264c0 30.3271 24.6729 55 55 55h402zM482 98.1279v256.954l-155.056 -128.678l154.104 -135.088
c0.615234 2.16699 0.951172 4.44922 0.951172 6.81152zM457 387.128h-402c-4.55176 0 -8.82129 -1.22852 -12.501 -3.36426l197.578 -163.965c9.25195 -7.67773 22.6787 -7.67773 31.9307 0l197.543 163.937c-3.69043 2.15234 -7.97754 3.39258 -12.5508 3.39258z
M30.9512 91.3164l154.146 135.125l-155.098 128.711v-257.024c0 -2.36133 0.335938 -4.64453 0.951172 -6.81152zM300.239 59.1602c6.57617 8.74707 17.0352 13.9678 27.9756 13.9688h128.07l-152.721 133.875l-12.3994 -10.29
c-10.1748 -8.44238 -22.6514 -12.667 -35.123 -12.667c-12.4756 0 -24.9473 4.2207 -35.124 12.667l-12.4434 10.3262l-152.762 -133.911h128.8c11.0684 0 21.5996 -5.31836 28.167 -14.2256l43.2686 -58.6602z" />
    <glyph glyph-name="022-pinterest" unicode="&#xf113;" 
d="M262.96 448c112.933 0 200.681 -76.707 201.033 -179.24c0 -106.948 -70.8516 -193.129 -168.904 -193.129c-32.9609 0 -63.9062 16.2256 -74.627 35.5859c0 0 -16.2891 -59.2988 -20.2568 -73.9229c-10.9121 -40.1299 -49.8262 -95.6523 -52.9941 -99.8125
c-1.98438 -2.59277 -5.53613 -1.60059 -6.14453 1.56738c-0.992188 5.72852 -12.4805 72.3232 -2.36816 113.445c5.98438 24.2891 38.1777 154.343 38.1777 154.343s-9.72852 18.5615 -9.72852 46.0508c0 43.2656 26.4014 75.4912 58.9463 75.4912
c27.5859 0 41.0898 -19.7773 41.0898 -43.6826c0 -26.6572 -17.8887 -66.4023 -27.0088 -103.364c-7.55273 -31.041 16.2568 -56.1309 48.2266 -56.1309c57.7617 0 102.212 58.1152 102.212 142.119c0 74.3389 -55.9707 126.31 -135.974 126.31
c-92.5166 0 -146.887 -66.4033 -146.887 -134.79c0 -26.6895 10.7207 -55.1387 24.2246 -70.7559c2.56055 -2.97559 2.97656 -5.72754 2.17676 -8.89648c-2.59277 -9.8877 -7.93652 -30.8486 -9.15234 -35.2012c-1.37598 -5.72852 -4.73633 -6.91211 -10.9131 -4.12793
c-40.6738 17.9844 -66.083 74.6914 -66.083 120.165c0 98.0527 74.6279 187.977 214.954 187.977z" />
    <glyph glyph-name="070-icon-149384" unicode="&#xf143;" 
d="M363.478 448c20.7188 0 37.5889 -16.8701 37.5889 -37.5889v-436.822c0 -20.7188 -16.8701 -37.5889 -37.5977 -37.5889h-214.946c-20.7188 0 -37.5889 16.8701 -37.5889 37.5977v436.813c0 20.7188 16.8701 37.5889 37.5889 37.5889h214.955zM128 379.733v-324.267h256
v324.267h-256zM148.522 430.934c-11.3154 0 -20.5225 -9.20801 -20.5225 -20.5225v-13.6113h256v13.6113c0 11.3145 -9.20703 20.5225 -20.5312 20.5225h-214.946zM363.478 -46.9336c11.3154 0 20.5225 9.20801 20.5225 20.5225v64.8115h-256v-64.8115
c0 -11.3145 9.20703 -20.5225 20.5225 -20.5225h214.955zM256 29.8662c18.8242 0 34.1338 -15.3086 34.1338 -34.1328s-15.3096 -34.1338 -34.1338 -34.1338s-34.1338 15.3096 -34.1338 34.1338s15.3096 34.1328 34.1338 34.1328zM256 -21.333
c9.41211 0 17.0664 7.6543 17.0664 17.0664s-7.6543 17.0664 -17.0664 17.0664s-17.0664 -7.6543 -17.0664 -17.0664s7.6543 -17.0664 17.0664 -17.0664zM221.866 405.333c-4.71875 0 -8.5332 3.81445 -8.5332 8.5332c0 4.71973 3.81445 8.53418 8.5332 8.53418h34.1338
c4.71875 0 8.5332 -3.81445 8.5332 -8.53418c0 -4.71875 -3.81445 -8.5332 -8.5332 -8.5332h-34.1338zM281.6 405.333c-4.71875 0 -8.5332 3.81445 -8.5332 8.5332c0 4.71973 3.81445 8.53418 8.5332 8.53418h8.53418c4.71875 0 8.5332 -3.81445 8.5332 -8.53418
c0 -4.71875 -3.81445 -8.5332 -8.5332 -8.5332h-8.53418zM483.089 409.011c38.5371 -38.5361 38.5371 -101.247 0 -139.775c-1.66406 -1.66406 -3.84863 -2.5 -6.0332 -2.5s-4.36914 0.835938 -6.0332 2.5c-3.33594 3.33594 -3.33594 8.72949 0 12.0664
c31.8809 31.8887 31.8809 83.7627 0 115.644c-3.33594 3.33594 -3.33594 8.72949 0 12.0654c3.33691 3.33691 8.73047 3.33691 12.0664 0zM447.155 389.589c13.79 -13.7725 21.3672 -32.1279 21.3672 -51.6514c0 -19.5244 -7.58594 -37.8711 -21.3672 -51.6445
c-1.66406 -1.66406 -3.84863 -2.5 -6.0332 -2.5s-4.36914 0.835938 -6.0332 2.5c-3.33594 3.33691 -3.33594 8.72949 0 12.0664c10.5557 10.5557 16.3672 24.6104 16.3672 39.5781c0 14.9668 -5.81152 29.0303 -16.3672 39.5859
c-3.33594 3.33594 -3.33594 8.72949 0 12.0654c3.33691 3.33691 8.72949 3.33691 12.0664 0zM40.9775 396.945c-31.8896 -31.8896 -31.8896 -83.7637 0 -115.644c3.33594 -3.33691 3.33594 -8.73047 0 -12.0664c-1.66406 -1.66406 -3.84863 -2.5 -6.0332 -2.5
s-4.36914 0.835938 -6.0332 2.5c-38.5371 38.5361 -38.5371 101.239 0 139.775c3.33594 3.33691 8.72949 3.33691 12.0664 0c3.33594 -3.33594 3.33594 -8.72949 0 -12.0654zM76.9111 391.944c3.32812 -3.33594 3.32812 -8.73828 0 -12.0664
c-10.5645 -10.5557 -16.3672 -24.6094 -16.3672 -39.5771s5.81152 -29.0303 16.3672 -39.5859c3.33594 -3.33691 3.33594 -8.72949 0 -12.0664c-1.66406 -1.66406 -3.84863 -2.5 -6.0332 -2.5s-4.36914 0.835938 -6.0332 2.5
c-13.7812 13.7812 -21.3672 32.1279 -21.3672 51.6523s7.58594 37.8711 21.3672 51.6436c3.33691 3.33691 8.72949 3.33691 12.0664 0z" />
    <glyph glyph-name="055-at" unicode="&#xf134;" 
d="M256 448c141.156 0 256 -114.844 256 -256v-27.875c0 -56.1416 -42.1719 -100.126 -96 -100.126c-29.4512 0 -55.5166 13.6113 -73.1406 34.5547c-22.8633 -21.2627 -53.25 -34.5547 -86.8594 -34.5547c-70.5781 0 -128.001 57.4229 -128.001 128.001
s57.4229 128.001 128.001 128.001c32.1689 0 61.252 -12.334 83.7637 -32.001h44.2354v-127.999c0 -17.6416 14.3594 -32.001 32.001 -32.001c18.5479 0 32 15.1875 32 36.125v27.875c0 105.875 -86.125 192 -192 192s-192 -86.125 -192 -192s86.125 -192 192 -192
c33.7656 0 66.9688 8.875 96 25.6719l32.0312 -55.4062c-38.75 -22.4219 -83.0156 -34.2656 -128.031 -34.2656c-141.156 0 -256 114.844 -256 256s114.844 256 256 256zM256 128c35.2979 0 64 28.7021 64 64c0 35.2959 -28.7021 64 -64 64c-35.2959 0 -64 -28.7021 -64 -64
c0 -35.2959 28.7021 -64 64 -64z" />
    <glyph glyph-name="097-tripadvisor" unicode="&#xf15d;" 
d="M512 288.8c0 0 -20.4805 -24.96 -28.7998 -48.3193c17.9199 -21.7607 28.7998 -49.2803 28.7998 -79.6807c0 -70.7197 -57.2803 -128 -128 -128c-41.9199 0 -78.7197 20.4805 -102.08 51.5205l-24.6396 -51.5205l-26.8799 51.8398
c-23.3604 -31.3594 -60.4805 -51.8398 -102.4 -51.8398c-70.7197 0 -128 57.2803 -128 128c0 30.4004 10.8799 57.9199 28.7998 79.6807c-8.31934 23.3594 -28.7998 48.3193 -28.7998 48.3193h90.2402c95.6797 83.2002 235.84 83.2002 331.52 0h90.2402zM128 64.7998
c52.7998 0 96 43.2002 96 96s-43.2002 96 -96 96s-96 -43.2002 -96 -96s43.2002 -96 96 -96zM384 64.7998c52.7998 0 96 43.2002 96 96s-43.2002 96 -96 96s-96 -43.2002 -96 -96s43.2002 -96 96 -96zM128 224.8c35.2959 0 64 -28.7041 64 -64s-28.7041 -64 -64 -64
s-64 28.7041 -64 64s28.7041 64 64 64zM128 128.8c17.6318 0 32 14.3682 32 32s-14.3682 32 -32 32s-32 -14.3682 -32 -32s14.3682 -32 32 -32zM384 224.8c35.2959 0 64 -28.7041 64 -64s-28.7041 -64 -64 -64s-64 28.7041 -64 64s28.7041 64 64 64zM384 128.8
c17.6641 0 32 14.3682 32 32s-14.3359 32 -32 32s-32 -14.3682 -32 -32s14.3359 -32 32 -32zM112 160.8c0 8.83691 7.16309 16 16 16s16 -7.16309 16 -16c0 -8.83594 -7.16309 -16 -16 -16s-16 7.16406 -16 16zM368 160.8c0 8.83691 7.16309 16 16 16s16 -7.16309 16 -16
c0 -8.83594 -7.16309 -16 -16 -16s-16 7.16406 -16 16z" />
    <glyph glyph-name="095-right-quotation-sign" unicode="&#xf15b;" 
d="M501.281 232.469c13.9668 -49.9727 14.3037 -104.447 0.901367 -149.462c-14.8477 -49.8955 -45.4082 -83.6426 -86.0557 -95.0029c-10.2324 -2.86523 -20.7695 -4.32129 -31.3223 -4.32129c-51.8066 0 -97.7441 34.8867 -111.711 84.8232
c-17.2314 61.6289 18.8779 125.797 80.5176 143.043c27.3232 7.61035 57.4951 4.71484 82.7871 -7.80176c-0.813477 3.40918 -1.65723 6.67773 -2.54883 9.87402c-22.5303 80.5547 -66.7266 116.799 -90.9102 116.799l-1.06738 -0.0214844
c-4.64746 -0.211914 -9.11816 2.92188 -10.4131 7.55859l-13.4229 48.0146c-0.792969 2.81836 -0.352539 5.83398 1.20703 8.31543c1.56445 2.46582 4.09277 4.16504 6.9834 4.67285c5.09766 0.901367 10.3301 1.35742 15.5674 1.35742
c65.21 0 132.294 -70.5967 159.487 -167.849zM72.9854 400.307c65.2246 0 132.299 -70.5859 159.508 -167.827c13.9717 -49.9785 14.3037 -104.458 0.90625 -149.473c-14.8535 -49.8955 -45.4141 -83.6426 -86.0557 -95.0029
c-10.2373 -2.86523 -20.7754 -4.32129 -31.3281 -4.32129c-51.8066 0 -97.7432 34.8867 -111.711 84.8232c-17.2412 61.6289 18.8789 125.797 80.5078 143.043c27.3232 7.61035 57.4844 4.71484 82.7871 -7.80176c-0.807617 3.38867 -1.65234 6.65723 -2.54883 9.87402
c-22.5303 80.5547 -66.7324 116.799 -90.915 116.799l-1.05762 -0.0214844c-4.72949 -0.211914 -9.11719 2.92188 -10.4131 7.55859l-13.4277 48.0146c-0.788086 2.81836 -0.347656 5.83398 1.21191 8.31543c1.55957 2.46582 4.09277 4.17578 6.97852 4.67285
c5.09277 0.901367 10.3301 1.34668 15.5576 1.34668z" />
    <glyph glyph-name="060-send" unicode="&#xf139;" 
d="M174.545 145.455c6.98242 0 11.6367 -4.65527 11.6367 -11.6357c0 -6.98145 -4.65332 -11.6367 -11.6357 -11.6367h-93.0908c-6.98145 0 -11.6357 4.65527 -11.6357 11.6367c0 6.98047 4.65332 11.6357 11.6357 11.6357h93.0898zM139.636 203.636
c6.98242 0 11.6367 -4.6543 11.6367 -11.6357s-4.6543 -11.6357 -11.6367 -11.6357h-93.0908c-6.98047 0 -11.6357 4.6543 -11.6357 11.6357s4.6543 11.6357 11.6357 11.6357h93.0908zM104.727 261.818c6.98242 0 11.6367 -4.65527 11.6367 -11.6367
c0 -6.98047 -4.6543 -11.6357 -11.6367 -11.6357h-93.0908c-6.98047 0 -11.6357 4.6543 -11.6357 11.6357c0 6.98242 4.65527 11.6367 11.6357 11.6367h93.0908zM463.127 292.073c3.49121 -4.65527 2.32812 -12.7998 -2.32715 -16.291l-123.346 -94.2549
c-9.30957 -8.14551 -23.2734 -11.6367 -34.9092 -11.6367s-24.4355 3.49121 -34.9092 11.6367l-124.509 94.2549c-5.81836 3.49121 -5.81836 11.6357 -2.32715 16.291c3.49121 5.81738 11.6357 5.81738 16.291 2.32715l123.345 -94.2559
c12.8008 -9.30859 30.2559 -9.30859 43.0557 0l123.345 94.2559c4.65527 3.49023 12.7998 2.32715 16.291 -2.32715zM477.091 343.273c19.7822 0 34.9092 -15.1289 34.9092 -34.9092v-232.727c0 -19.7812 -15.127 -34.9092 -34.9092 -34.9092h-372.364
c-6.98047 0 -11.6357 4.6543 -11.6357 11.6367c0 6.98047 4.6543 11.6357 11.6357 11.6357h372.364c6.98145 0 11.6357 4.6543 11.6357 11.6357v232.728c0 6.98047 -4.65332 11.6357 -11.6357 11.6357h-372.364c-6.98145 0 -11.6357 4.65625 -11.6357 11.6367
c0 6.98145 4.6543 11.6367 11.6357 11.6367h372.364zM461.964 107.055c4.6543 -4.6543 4.6543 -11.6367 0 -16.291c-2.32812 -2.32715 -5.81934 -3.49023 -8.14551 -3.49023c-2.32715 0 -5.81836 1.16309 -8.14551 3.49023l-69.8174 69.8184
c-4.65527 4.65527 -4.65527 11.6357 0 16.291c4.6543 4.65527 11.6357 4.65527 16.291 0z" />
    <glyph glyph-name="052-envelope" unicode="&#xf131;" 
d="M464 384c26.4688 0 48 -21.5312 48 -48v-288c0 -26.4688 -21.5312 -48 -48 -48h-416c-26.4688 0 -48 21.5312 -48 48v288c0 26.4688 21.5312 48 48 48h416zM464 352h-416.001c-2.17383 0 -4.24121 -0.452148 -6.13281 -1.23828l214.134 -185.59l214.132 185.59
c-1.89062 0.788086 -3.95801 1.23828 -6.13184 1.23828zM464 32.001c8.82812 0 15.999 7.1709 16 15.999v268.953l-213.516 -185.047c-3.01562 -2.60938 -6.75 -3.90625 -10.4844 -3.90625s-7.46875 1.29785 -10.4844 3.90625l-213.516 185.047v-268.952
c0 -8.8291 7.17188 -16 16 -16h416z" />
    <glyph glyph-name="078-right-chevron" unicode="&#xf14b;" 
d="M386.273 199.667c4.16016 -4.16016 4.16016 -10.8809 0 -15.042l-245.357 -245.357l-0.212891 -0.212891c-4.16016 -4.16113 -10.9883 -4.05469 -15.042 0.212891c-4.16016 4.16016 -4.05371 10.9883 0.213867 15.041l237.783 237.891l-237.783 237.784
c-3.94824 4.16016 -3.94824 10.668 0 14.8281c4.05273 4.16016 10.7734 4.2666 15.041 0.212891z" />
    <glyph glyph-name="085-down-arrow-1" unicode="&#xf152;" 
d="M508.744 322.315c4.34082 -4.34082 4.34082 -11.3984 0.000976562 -15.7402l-244.875 -244.875c-2.16016 -2.18164 -5.00879 -3.27246 -7.8584 -3.27246s-5.69922 1.0918 -7.88086 3.25l-244.875 244.876c-4.34082 4.34082 -4.34082 11.3975 0 15.7393
c4.34082 4.34082 11.3984 4.34082 15.7393 0l237.017 -236.994l236.993 237.017c4.34082 4.34082 11.3984 4.34082 15.7393 0z" />
    <glyph glyph-name="064-telephone-1" unicode="&#xf13d;" 
d="M439.44 36.4053c9.29883 -9.29883 9.29883 -24.374 -0.000976562 -33.6719l-49.374 -49.374l-0.0507812 0.0498047c-14.5312 -15.7939 -38.0449 -21.9492 -61.3047 -13.832c-150.922 52.667 -272.468 174.212 -325.135 325.135
c-8.49902 24.3516 -1.33398 49.0566 16.1455 63.3359l-0.19043 0.191406l49.374 49.374c9.29785 9.29785 24.373 9.29785 33.6719 0l77.3184 -77.3164c9.2998 -9.29785 9.2998 -24.374 0 -33.6719l-34.21 -34.21c35.4287 -62.8115 87.917 -115.3 150.729 -150.729
l32.0361 32.0361c9.29785 9.29883 24.373 9.29883 33.6719 0zM260.948 312.05c63.4668 0 115.102 -51.6348 115.102 -115.101c0 -9.27148 -7.51562 -16.7871 -16.7871 -16.7871c-9.27051 0 -16.7871 7.51562 -16.7871 16.7871c0 44.9541 -36.5732 81.5264 -81.5273 81.5264
c-9.27246 0 -16.7871 7.5166 -16.7871 16.7871c0 9.27148 7.51562 16.7871 16.7871 16.7871zM260.948 380.409c101.161 0 183.461 -82.2988 183.461 -183.459c0 -9.27148 -7.5166 -16.7871 -16.7871 -16.7871c-9.27148 0 -16.7871 7.51562 -16.7871 16.7871
c0 82.6455 -67.2393 149.885 -149.887 149.885c-9.27246 0 -16.7871 7.51562 -16.7871 16.7871c0 9.27051 7.51562 16.7871 16.7871 16.7871zM438.467 374.469c47.418 -47.417 73.5322 -110.461 73.5322 -177.52c0 -9.27148 -7.51562 -16.7871 -16.7871 -16.7871
c-9.27051 0 -16.7871 7.51562 -16.7871 16.7871c0 119.918 -97.5605 217.477 -217.477 217.477c-9.27148 0 -16.7871 7.5166 -16.7871 16.7871c0 9.27148 7.51562 16.7871 16.7871 16.7871c67.0566 0 130.101 -26.1143 177.519 -73.5312z" />
    <glyph glyph-name="028-download" unicode="&#xf119;" 
d="M366.56 214.624c2.59277 -5.72754 1.63281 -12.4482 -2.52734 -17.1523l-112 -128c-3.04004 -3.45605 -7.42383 -5.47168 -12.0322 -5.47168s-8.99219 1.98438 -12.0322 5.47168l-112 128c-4.12793 4.73633 -5.15137 11.4248 -2.52734 17.1523
c2.5918 5.69629 8.28711 9.37598 14.5596 9.37598h64v208c0 8.83203 7.16797 16 16 16h64c8.83203 0 16 -7.16797 16 -16v-208h64c6.27246 0 11.9678 -3.64844 14.5596 -9.37598zM416 96h64v-128c0 -17.6963 -14.3037 -32 -32 -32h-416c-17.6641 0 -32 14.3037 -32 32v128
h64v-96h352v96z" />
    <glyph glyph-name="019-telegram" unicode="&#xf110;" 
d="M200.896 124.139l218.176 195.904c9.49316 8.40527 -2.04785 13.0557 -14.7412 4.65039l-269.718 -168.768l-116.117 36.1172c-25.2588 7.8291 -25.7285 25.1094 5.26953 37.1406l454.187 173.889c21.0342 7.8291 39.4238 -4.65137 32.5762 -36.5654
l-0.0214844 -0.0214844l-77.2695 -362.069c-5.82422 -25.5576 -21.0342 -31.8936 -42.624 -19.8613l-117.717 86.208l-56.8115 -54.293c-6.29297 -6.25098 -11.541 -11.4561 -23.6582 -11.4561z" />
    <glyph glyph-name="027-network" unicode="&#xf118;" 
d="M437.27 415.894c52.7354 -1.30176 77.376 -35.8613 74.5176 -103.382l-0.277344 -0.212891c-2.24023 -50.3682 -37.0986 -119.424 -104.406 -207.04c-69.7168 -91.5205 -128.554 -137.259 -176.853 -137.259c-30.0586 0 -54.998 27.8828 -75.7979 83.627
c-30.9971 101.013 -50.3252 236.843 -90.2402 236.843c-3.81836 0 -17.1943 -8.14941 -40.1279 -24.4053l-24.085 31.4023c50.1338 44.6289 113.941 110.464 150.507 113.941c39.8291 3.86133 64.3408 -23.7227 73.5361 -82.71
c6.61328 -42.4316 26.1328 -197.823 58.6025 -197.823c10.709 0 26.7949 17.1514 48.3203 51.3916c21.418 34.2402 32.8525 60.2666 34.3887 78.165c3.07227 29.5469 -8.42676 44.416 -34.4316 44.416c-12.2451 0 -24.8965 -2.60254 -37.9092 -8.42676
c25.3008 83.3496 73.2588 124.054 144.256 121.473z" />
    <glyph glyph-name="016-facebook" unicode="&#xf10d;" 
d="M180 -64h-81.9922c-13.6953 0 -24.8359 11.1406 -24.8359 24.8359v184.938h-47.8359c-13.6953 0 -24.8359 11.1445 -24.8359 24.8359v79.2461c0 13.6953 11.1406 24.8359 24.8359 24.8359h47.8359v39.6836c0 39.3477 12.3555 72.8242 35.7266 96.8047
c23.4766 24.0898 56.2852 36.8203 94.8789 36.8203l62.5312 -0.101562c13.6719 -0.0234375 24.793 -11.1641 24.793 -24.8359v-73.5781c0 -13.6953 -11.1367 -24.8359 -24.8281 -24.8359l-42.1016 -0.015625c-12.8398 0 -16.1094 -2.57422 -16.8086 -3.36328
c-1.15234 -1.30859 -2.52344 -5.00781 -2.52344 -15.2227v-31.3516h58.2695c4.38672 0 8.63672 -1.08203 12.2891 -3.12109c7.87891 -4.40234 12.7773 -12.7266 12.7773 -21.7227l-0.03125 -79.2461c0 -13.6875 -11.1406 -24.8281 -24.8359 -24.8281h-58.4688v-184.941
c0 -13.6953 -11.1445 -24.8359 -24.8398 -24.8359zM103.188 -33.9844h71.6328v193.195c0 9.14453 7.44141 16.582 16.582 16.582h66.7266l0.0273438 68.8828h-66.7578c-9.14062 0 -16.5781 7.4375 -16.5781 16.582v44.7891c0 11.7266 1.19141 25.0625 10.043 35.0859
c10.6953 12.1172 27.5508 13.5156 39.3008 13.5156l36.9219 0.015625v63.2266l-57.332 0.09375c-62.0234 0 -100.566 -39.7031 -100.566 -103.609v-53.1172c0 -9.14062 -7.4375 -16.582 -16.5781 -16.582h-56.0938v-68.8828h56.0938
c9.14062 0 16.5781 -7.4375 16.5781 -16.582v-193.195zM266.25 417.883h0.00390625h-0.00390625zM266.25 417.883z" />
    <glyph glyph-name="020-share" unicode="&#xf111;" 
d="M453.332 362.668c0 -38.293 -31.0391 -69.3359 -69.332 -69.3359s-69.332 31.043 -69.332 69.3359c0 38.2891 31.0391 69.332 69.332 69.332s69.332 -31.043 69.332 -69.332zM453.332 362.668zM384 277.332c-47.0625 0 -85.332 38.2734 -85.332 85.3359
c0 47.0586 38.2695 85.332 85.332 85.332s85.332 -38.2734 85.332 -85.332c0 -47.0625 -38.2695 -85.3359 -85.332 -85.3359zM384 416c-29.418 0 -53.332 -23.9375 -53.332 -53.332c0 -29.3984 23.9141 -53.3359 53.332 -53.3359s53.332 23.9375 53.332 53.3359
c0 29.3945 -23.9141 53.332 -53.332 53.332zM384 416zM453.332 21.332c0 -38.2891 -31.0391 -69.332 -69.332 -69.332s-69.332 31.043 -69.332 69.332c0 38.293 31.0391 69.3359 69.332 69.3359s69.332 -31.043 69.332 -69.3359zM453.332 21.332zM384 -64
c-47.0625 0 -85.332 38.2734 -85.332 85.332c0 47.0625 38.2695 85.3359 85.332 85.3359s85.332 -38.2734 85.332 -85.3359c0 -47.0586 -38.2695 -85.332 -85.332 -85.332zM384 74.668c-29.418 0 -53.332 -23.9375 -53.332 -53.3359
c0 -29.3945 23.9141 -53.332 53.332 -53.332s53.332 23.9375 53.332 53.332c0 29.3984 -23.9141 53.3359 -53.332 53.3359zM384 74.668zM154.668 192c0 -38.293 -31.043 -69.332 -69.3359 -69.332c-38.2891 0 -69.332 31.0391 -69.332 69.332s31.043 69.332 69.332 69.332
c38.293 0 69.3359 -31.0391 69.3359 -69.332zM154.668 192zM85.332 106.668c-47.0586 0 -85.332 38.2695 -85.332 85.332s38.2734 85.332 85.332 85.332c47.0625 0 85.3359 -38.2695 85.3359 -85.332s-38.2734 -85.332 -85.3359 -85.332zM85.332 245.332
c-29.418 0 -53.332 -23.9336 -53.332 -53.332s23.9141 -53.332 53.332 -53.332c29.4219 0 53.3359 23.9336 53.3359 53.332s-23.9141 53.332 -53.3359 53.332zM85.332 245.332zM135.703 202.238c-7.42578 0 -14.6367 3.86328 -18.5625 10.7734
c-5.82422 10.2188 -2.23828 23.2539 7.98047 29.1016l197.949 112.852c10.2188 5.86719 23.2539 2.28125 29.1016 -7.97656c5.82422 -10.2188 2.23828 -23.2539 -7.98047 -29.1016l-197.953 -112.852c-3.32812 -1.89844 -6.95312 -2.79688 -10.5352 -2.79688z
M135.703 202.238zM333.633 26.2383c-3.58594 0 -7.21094 0.898438 -10.5391 2.79688l-197.953 112.852c-10.2188 5.82422 -13.8008 18.8594 -7.97656 29.1016c5.80078 10.2383 18.8555 13.8438 29.0977 7.97656l197.953 -112.852
c10.2188 -5.82422 13.8008 -18.8594 7.97656 -29.1016c-3.94531 -6.91016 -11.1562 -10.7734 -18.5586 -10.7734zM333.633 26.2383z" />
    <glyph glyph-name="033-magnifying-glass" unicode="&#xf11e;" 
d="M375.733 117.517l136.267 -136.266l-45.25 -45.25l-136.265 136.265c-34.4062 -25.1943 -76.6709 -40.2666 -122.485 -40.2666c-114.688 0 -208 93.3125 -208 207.999c0 114.688 93.3115 208 207.999 208c114.687 0 207.999 -93.3125 207.999 -208
c0 -45.8145 -15.0703 -88.0752 -40.2646 -122.481zM208 95.999c79.4043 0 143.999 64.5928 143.999 143.999s-64.5938 144 -143.999 144c-79.4062 0 -144 -64.5938 -144 -144s64.5938 -143.999 144 -143.999z" />
    <glyph glyph-name="032-search" unicode="&#xf11d;" 
d="M508.875 -30.709c4.16602 -4.16504 4.16602 -10.9189 0.000976562 -15.085l-15.0811 -15.082c-4.16699 -4.16504 -10.9189 -4.16504 -15.0859 0l-148.732 148.732c-34.8271 -28.209 -79.1035 -45.1914 -127.31 -45.1914c-111.75 0 -202.667 90.917 -202.667 202.668
c0 111.75 90.916 202.667 202.666 202.667c111.751 0 202.668 -90.917 202.668 -202.667c0 -48.2061 -16.9814 -92.4824 -45.1914 -127.31zM202.667 85.332c88.2295 0 160.001 71.7715 160.001 160.001c0 88.2285 -71.7715 160 -160.001 160
c-88.2285 0 -160 -71.7715 -160 -160c0 -88.2295 71.7715 -160.001 160 -160.001z" />
    <glyph glyph-name="007-instagram" unicode="&#xf105;" 
d="M256.085 323.456c72.5342 0 131.371 -58.7734 131.371 -131.371c0 -72.5332 -58.7734 -131.37 -131.371 -131.37c-72.5332 0 -131.37 58.7734 -131.37 131.37c0 72.5342 58.7734 131.371 131.37 131.371zM256.085 106.816c47.126 0 85.291 38.165 85.2695 85.2686
c0 47.1045 -38.165 85.2695 -85.2695 85.2695c-47.1035 0 -85.2686 -38.165 -85.2686 -85.2695c0 -47.1035 38.1436 -85.2686 85.2686 -85.2686zM361.558 446.379c96.3623 -4.4375 144.597 -58.9443 148.821 -148.821c2.09082 -47.1465 2.21875 -163.798 0 -210.923
c-3.49902 -76.1387 -39.2959 -118.528 -86.7207 -136.938c-34.8799 -13.5039 -68.9277 -13.4404 -167.573 -13.4404c-96.1494 0 -163.456 -6.46387 -212.885 42.9443c-48.4912 48.4902 -42.9443 113.301 -42.9443 212.885c0 97.3018 -6.29297 163.648 42.9443 212.886
c29.4609 29.4609 66.0049 39.4668 107.435 41.4082c47.1465 2.09082 163.818 2.19727 210.923 0zM436.117 11.7764c31.7227 31.8721 29.7178 74.9014 29.7393 180.33c0 68.3096 -0.277344 76.416 -1.49414 103.403c-5.35449 118.271 -94.5488 106.367 -208.234 106.367
l-0.959961 0.640625c-68.416 0 -76.416 -0.320312 -103.595 -1.28027c-118.293 -6.05859 -106.197 -90.9443 -106.197 -208.811c0 -87.1045 -6.50684 -144.555 29.4404 -180.331c31.21 -31.2959 73.9834 -29.7168 180.65 -29.7168
c103.595 0 148.373 -2.87988 180.65 29.3975zM361.963 328.64c0 16.9551 13.7441 30.6992 30.6982 30.6992c16.9551 0 30.6992 -13.7441 30.6992 -30.6992c0 -16.9541 -13.7441 -30.6982 -30.6992 -30.6982c-16.9541 0 -30.6982 13.7441 -30.6982 30.6982z" />
    <glyph glyph-name="012-24-hours" unicode="&#xf109;" 
d="M93.3477 56.25h-38.3477c-30.3281 0 -55 24.6719 -55 55v86.8828c0 30.3281 24.6719 55 55 55h38.3477c13.7852 0 25 -11.2148 25 -25v-146.883c0 -13.7852 -11.2148 -25 -25 -25zM93.3477 56.25zM234.926 448c92.8398 0 168.91 -73.168 173.574 -164.867h-26.9922
c-1.02734 0 -2.04688 -0.0351562 -3.0625 -0.0898438c-4.58203 75.1875 -67.1992 134.957 -143.516 134.957c-76.2969 0 -138.891 -59.7227 -143.52 -134.867h-30.0586c4.66406 91.6992 80.7344 164.867 173.574 164.867zM234.926 448zM419.855 56.25h-38.3477
c-13.7852 0 -25 11.2148 -25 25v146.883c0 13.7852 11.2148 25 25 25h38.3477c30.3242 0 55 -24.6719 55 -55v-86.8828c0 -30.3281 -24.6758 -55 -55 -55zM419.855 56.25zM323.59 -33.9414h-48.0898c-8.28125 0 -15 6.71484 -15 15s6.71875 15 15 15h48.0898
c30.4023 0 55.1367 24.7344 55.1367 55.1367v20.0547c0 8.28516 6.71484 15 15 15s15 -6.71484 15 -15v-20.0547c0 -46.9453 -38.1914 -85.1367 -85.1367 -85.1367zM323.59 -33.9414zM237.426 -64c-29.2656 0 -53.0742 20.2148 -53.0742 45.0586
s23.8086 45.0586 53.0742 45.0586s53.0742 -20.2148 53.0742 -45.0586s-23.8086 -45.0586 -53.0742 -45.0586zM237.426 -64zM192 291.562c19.4102 0 38.9883 -12.2148 38.9883 -34.6367c0 -36.3125 -51.7031 -48.1914 -51.7031 -63.418v-1.50781h43.8398
c4.18359 0 7.86328 -5.1875 7.86328 -11.2109s-3.67969 -11.5469 -7.86328 -11.5469h-59.5703c-4.68359 0 -11.375 3.18359 -11.375 8.03125v16.2344c0 26.2695 52.707 41.3281 52.707 62.5781c0 5.35547 -3.34766 11.8828 -12.7188 11.8828
c-6.69141 0 -12.5469 -3.34766 -12.5469 -12.5508c0 -4.85156 -5.1875 -9.53906 -13.7227 -9.53906c-6.69141 0 -11.7109 3.01172 -11.7109 13.5547c-0.00390625 20.4141 18.7383 32.1289 37.8125 32.1289zM192 291.562zM285.703 195.016h-39.1562
c-4.85156 0 -8.69922 3.17578 -8.69922 9.03516c0 1.33594 0.332031 3.17969 1.33594 5.01953l38.6523 75.8008c2.51172 4.85156 6.69141 6.69141 10.8789 6.69141c4.51562 0 13.0508 -3.84766 13.0508 -9.87109c0 -1.00391 -0.335938 -2.00781 -0.835938 -3.17969
l-29.6172 -59.4023h14.3906v11.7109c0 5.52344 6.52344 7.86719 13.0508 7.86719c6.52344 0 13.0508 -2.34375 13.0508 -7.86719v-11.7109h7.19531c5.35547 0 8.03125 -6.02344 8.03125 -12.0469s-4.01562 -12.0469 -8.03125 -12.0469h-7.19531v-17.7383
c0 -5.35156 -6.52344 -8.03125 -13.0508 -8.03125s-13.0508 2.67969 -13.0508 8.03125v17.7383zM285.703 195.016z" />
    <glyph glyph-name="054-email-2" unicode="&#xf133;" 
d="M394.667 234.667c64.6982 0 117.333 -52.6357 117.333 -117.333v-10.667c0 -23.5322 -19.1348 -42.667 -42.666 -42.667c-14.417 0 -27.1299 7.22461 -34.8574 18.2021c-9.7793 -11.0713 -23.9131 -18.2021 -39.8096 -18.2021c-29.4072 0 -53.334 23.9277 -53.334 53.334
s23.9268 53.333 53.333 53.333c13.5908 0 25.877 -5.26562 35.3047 -13.667c1.91504 1.83887 4.49316 3 7.3623 3c5.89551 0 10.667 -4.77148 10.667 -10.667v-42.667c0 -11.7598 9.57324 -21.333 21.333 -21.333s21.333 9.57324 21.333 21.333v10.667
c0 52.9365 -43.0635 96 -96 96c-52.9375 0 -96 -43.0635 -96 -96s43.0615 -96 96 -96c16.875 0 33.4688 4.43652 47.9902 12.833c5.09375 2.98047 11.625 1.21875 14.5723 -3.88477c2.95996 -5.10449 1.20996 -11.625 -3.88477 -14.5732
c-17.7705 -10.2812 -38.0518 -15.708 -58.6768 -15.708c-64.6982 0 -117.333 52.6357 -117.333 117.334s52.6348 117.333 117.333 117.333zM394.667 85.333c17.6465 0 32 14.3535 32 32c0 17.6455 -14.3535 32 -32 32c-17.6455 0 -32 -14.3545 -32 -32
c0 -17.6465 14.3545 -32 32 -32zM17.6982 359.312c-2.60449 2.11523 -4.05176 5.32324 -3.92676 8.66699c0.125 3.35449 1.8125 6.44824 4.5625 8.35449c7.19824 5.02051 15.6143 7.66699 24.333 7.66699h320c8.71777 0 17.1465 -2.65625 24.3428 -7.67676
c2.75 -1.91602 4.43848 -5.00977 4.56348 -8.35449c0.125 -3.34375 -1.32324 -6.55176 -3.92676 -8.66699l-175.585 -142.875c-3.95801 -2.39551 -6.66699 -3.10352 -9.375 -3.10352c-2.56152 0 -5.04004 0.603516 -7.38477 1.80176
c-0.666016 0.333008 -1.30176 0.75 -1.88477 1.22852zM256 117.333c0 -5.93652 0.509766 -12.2393 1.59473 -19.8232c0.438477 -3.06152 -0.478516 -6.16699 -2.5 -8.5c-2.03125 -2.33301 -4.96875 -3.67676 -8.0625 -3.67676h-204.365
c-23.5322 0 -42.667 19.1357 -42.667 42.667v195.771c0 4.11328 2.36523 7.86328 6.08301 9.63574c3.74023 1.75 8.13574 1.22852 11.3135 -1.36523l163.707 -133.199c13.8857 -9.16699 29 -8.78125 41.3027 -1.22852l1.875 1.23926l163.657 133.177
c3.19727 2.58398 7.59375 3.09375 11.3125 1.36426c3.71777 -1.76953 6.08301 -5.51953 6.08301 -9.63477v-57.0928c0 -5.89551 -4.77051 -10.667 -10.667 -10.667c-76.459 0 -138.667 -62.208 -138.667 -138.667z" />
    <glyph glyph-name="079-left-arrow-1" unicode="&#xf14c;" 
d="M483.22 232.15c15.4307 0 28.7803 -12.2588 28.7803 -27.6816v-23.7139c0 -15.4229 -12.9668 -28.7217 -28.3975 -28.7217h-343.406l108.919 -108.544c5.27344 -5.2666 8.16699 -11.9219 8.16699 -19.4111c0 -7.49219 -2.89355 -14.5186 -8.16699 -19.7803
l-16.7588 -16.7666c-5.26953 -5.26172 -12.292 -8.16309 -19.7803 -8.16309c-7.49707 0 -14.5195 2.89746 -19.7891 8.16309l-184.624 184.624c-5.29102 5.28223 -8.18359 12.333 -8.16309 19.8721c-0.0205078 7.49609 2.87207 14.5439 8.16309 19.835l184.624 184.606
c5.26953 5.27051 12.2959 8.16309 19.7891 8.16309c7.48828 0 14.5107 -2.91406 19.7803 -8.18359l16.7588 -16.7666c5.27344 -5.28223 8.16699 -12.3721 8.16699 -19.8643c0 -7.49316 -2.89355 -14.6318 -8.16699 -19.9014l-107.703 -107.94h342.606z" />
    <glyph glyph-name="066-phone-call-1" unicode="&#xf13f;" 
d="M128.167 115.396c0 28.5244 23.2061 51.7305 51.7305 51.7305c28.7637 0 52.3037 -23.6543 51.7031 -52.7959c47.9502 16.2803 85.9551 54.2852 102.235 102.236c-29.1973 -0.603516 -52.7949 23.002 -52.7949 51.7021c0 28.5234 23.2061 51.7295 51.7295 51.7295
c28.7588 0 51.7725 -23.5801 51.7246 -51.5166c0.378906 -110.888 -91.0703 -204.816 -204.598 -204.816c-28.8086 0 -51.7305 23.5127 -51.7305 51.7305zM256 448c141.503 0 256 -114.517 256 -256c0 -141.503 -114.517 -256 -256 -256c-141.503 0 -256 114.517 -256 256
c0 11.6133 9.41406 21.0273 21.0273 21.0273s21.0273 -9.41406 21.0273 -21.0273c0 -117.97 95.9756 -213.945 213.945 -213.945s213.945 95.9756 213.945 213.945s-95.9756 213.945 -213.945 213.945c-11.6133 0 -21.0273 9.41406 -21.0273 21.0273
s9.41406 21.0273 21.0273 21.0273zM21.0273 299.14c-11.6133 0 -21.0273 9.41406 -21.0273 21.0273c0 70.4873 57.3457 127.833 127.833 127.833c11.6133 0 21.0273 -9.41406 21.0273 -21.0273s-9.41406 -21.0273 -21.0273 -21.0273
c-47.2979 0 -85.7783 -38.4805 -85.7783 -85.7783c0 -11.6133 -9.41406 -21.0273 -21.0273 -21.0273zM148.86 352.208c0 -11.6123 -9.41406 -21.0273 -21.0273 -21.0273c-6.07227 0 -11.0137 -4.94141 -11.0137 -11.0137c0 -11.6133 -9.41504 -21.0273 -21.0273 -21.0273
c-11.6133 0 -21.0273 9.41406 -21.0273 21.0273c0 29.2617 23.8057 53.0684 53.0684 53.0684c11.6133 0 21.0273 -9.41406 21.0273 -21.0273zM138.515 288.125c0 11.7969 9.56348 21.3604 21.3604 21.3604s21.3604 -9.56348 21.3604 -21.3604
s-9.56348 -21.3604 -21.3604 -21.3604s-21.3604 9.56348 -21.3604 21.3604z" />
    <glyph glyph-name="049-address" unicode="&#xf12e;" 
d="M204.5 -10.6055v-51.8555l-12.5391 10.1289c-1.9375 1.56641 -48.0352 38.9922 -94.7812 92.6602c-64.4844 74.0352 -97.1797 140.492 -97.1797 197.52v5.65234c0 112.762 91.7383 204.5 204.5 204.5s204.5 -91.7383 204.5 -204.5v-5.65234
c0 -4.78906 -0.253906 -9.65234 -0.714844 -14.5742l-39.9922 36.4844c-8.19141 83.1562 -78.5195 148.34 -163.793 148.34c-90.7578 0 -164.598 -73.8398 -164.598 -164.598v-5.65234c0 -96.3672 124.164 -213.027 164.598 -248.453zM327.199 18.0547v59.8516h59.8516
v-59.8516h-59.8516zM204.5 328.293c46.7539 0 84.793 -38.0391 84.793 -84.793s-38.0391 -84.793 -84.793 -84.793s-84.793 38.0391 -84.793 84.793s38.0391 84.793 84.793 84.793zM204.5 288.391c-24.7539 0 -44.8906 -20.1367 -44.8906 -44.8906
c0 -24.75 20.1367 -44.8906 44.8906 -44.8906c24.75 0 44.8906 20.1406 44.8906 44.8906c0 24.7539 -20.1406 44.8906 -44.8906 44.8906zM485.109 45.168l-11.2188 10.2344v-64.0586c0 -29.8281 -24.2695 -54.0938 -54.0977 -54.0938h-126.332
c-29.8281 0 -54.0977 24.2656 -54.0977 54.0938v64.0586l-11.2188 -10.2344l-26.8906 29.4766l155.371 141.746l155.375 -141.746zM433.988 91.8047l-77.3633 70.5742l-77.3594 -70.5742v-100.457c0 -7.82812 6.36719 -14.1953 14.1953 -14.1953h126.332
c7.82812 0 14.1953 6.36719 14.1953 14.1953v100.457zM433.988 91.8047z" />
    <glyph glyph-name="077-right-arrow-3" unicode="&#xf14a;" 
d="M388.418 207.085c8.33105 -8.33105 8.33105 -21.8389 0.000976562 -30.1699l-234.667 -234.667c-8.33105 -8.33105 -21.8389 -8.33105 -30.1699 0s-8.33105 21.8389 0 30.1699l219.581 219.582l-219.581 219.582c-8.33105 8.33105 -8.33105 21.8389 0 30.1699
s21.8389 8.33105 30.1699 0z" />
    <glyph glyph-name="024-tik-tok" unicode="&#xf115;" 
d="M432.734 335.535c8.28516 0 15 -6.71875 15 -15v-80.3359c0 -8.28516 -6.71484 -15 -15 -15c-34.3906 0 -67.6133 8.30859 -97.4648 24.2266v-145.793c0 -92.4336 -75.2031 -167.633 -167.637 -167.633s-167.633 75.1992 -167.633 167.633
s75.1992 167.637 167.633 167.637c8.28516 0 15 -6.71875 15 -15v-80.3359c0 -8.28516 -6.71484 -15 -15 -15c-31.5938 0 -57.2969 -25.7031 -57.2969 -57.3008c0 -31.5938 25.7031 -57.2969 57.2969 -57.2969s57.3008 25.7031 57.3008 57.2969v329.367
c0 8.28516 6.71875 15 15 15h80.3359c8.28516 0 15 -6.71484 15 -15c0 -53.7422 43.7227 -97.4648 97.4648 -97.4648zM432.734 335.535z" />
    <glyph glyph-name="063-call" unicode="&#xf13c;" 
d="M498.565 53.0195c13.4014 -8.91016 17.4209 -26.7891 9.12109 -40.5791l-26.0566 -43.3086c-8 -13.6201 -20.9658 -23.6104 -36.1758 -27.874c-13.0723 -3.53418 -26.5605 -5.2959 -40.1016 -5.23828c-58.8369 0 -144.439 30.9209 -259.426 145.898
c-144.551 144.568 -156.29 242.695 -140.686 299.553c4.26855 15.207 14.2578 28.1709 27.874 36.1758l43.334 26.0312c13.7871 8.28809 31.6543 4.2666 40.5605 -9.12988l69.1094 -103.631c8.69043 -13.1543 5.82324 -30.7783 -6.58691 -40.502l-38.7861 -30.1768
c-5.11719 -3.91113 -6.57324 -10.9932 -3.41211 -16.6035l3.14844 -5.74219c10.375 -19.001 23.3184 -42.7031 71.0381 -90.4404c47.7197 -47.7363 71.4043 -60.6533 90.4395 -71.0293l5.74219 -3.16504c5.6123 -3.11816 12.6641 -1.63379 16.5439 3.48145l30.1865 38.8125
c9.72266 12.415 27.3506 15.2773 40.502 6.57715zM492.984 21.1953c3.60449 5.98145 1.86035 13.7402 -3.95703 17.6016l-103.621 69.1094c-5.70898 3.76953 -13.3535 2.53125 -17.5771 -2.84961l-30.1768 -38.7949c-9.02832 -11.8066 -25.3633 -15.1768 -38.3271 -7.90918
l-5.60449 3.08887c-19.9902 10.9033 -44.8613 24.4609 -94.3564 73.9473c-49.4941 49.4863 -63.0518 74.3652 -73.9561 94.3643l-3.08008 5.59766c-7.26953 12.9639 -3.89746 29.2988 7.9082 38.3262l38.7959 30.1777c5.38281 4.22266 6.62305 11.8701 2.84961 17.5762
l-31.5098 47.2588l-37.541 56.3633c-3.86426 5.8125 -11.6191 7.55762 -17.6016 3.95801l-43.335 -25.9971c-9.84277 -5.75293 -17.0791 -15.0908 -20.1943 -26.0566c-14.4111 -52.498 -2.47559 -144.192 136.299 -282.967c138.773 -138.774 230.477 -150.71 282.966 -136.3
c10.9531 3.1123 20.2783 10.3398 26.0225 20.1699zM290.118 362.623c-4.71289 0 -8.53223 3.81934 -8.53223 8.53125c0 4.71289 3.81934 8.53223 8.53223 8.53223c89.4893 -0.0986328 162.01 -72.6191 162.108 -162.109c0 -4.71191 -3.81934 -8.53125 -8.53125 -8.53125
c-4.71289 0 -8.53223 3.81934 -8.53223 8.53125c-0.0898438 80.0693 -64.9756 144.956 -145.045 145.046zM290.118 311.431c-4.71289 0 -8.53223 3.81934 -8.53223 8.53125s3.81934 8.53223 8.53223 8.53223c61.2275 -0.0703125 110.846 -49.6885 110.916 -110.917
c0 -4.71191 -3.81934 -8.53125 -8.53125 -8.53125s-8.53223 3.81934 -8.53223 8.53125c-0.0605469 51.8086 -42.0449 93.792 -93.8525 93.8535zM290.118 260.238c-4.71289 0 -8.53223 3.81934 -8.53223 8.53125s3.81934 8.53223 8.53223 8.53223
c32.9688 -0.0371094 59.6855 -26.7559 59.7236 -59.7246c0 -4.71191 -3.82031 -8.53125 -8.53125 -8.53125c-4.71191 0 -8.53223 3.81934 -8.53223 8.53125c-0.0283203 23.5498 -19.1123 42.6328 -42.6602 42.6611z" />
    <glyph glyph-name="074-right-arrow-1" unicode="&#xf147;" 
d="M503.816 211.893c5.29492 -5.28613 8.2002 -12.3584 8.18359 -19.8965c0.0205078 -7.51367 -2.88867 -14.582 -8.17969 -19.877l-184.901 -184.9c-5.27734 -5.27832 -12.3125 -8.19238 -19.8135 -8.19238c-7.50879 0 -14.54 2.87598 -19.8184 8.1543l-16.7871 16.7383
c-5.27441 5.27344 -8.17969 12.2207 -8.17969 19.7178c0 7.50488 2.90527 14.3525 8.17969 19.6309l109.088 108.709h-343.928c-15.4512 0 -27.6602 13.3164 -27.6602 28.7725v23.7383c0 15.4561 12.209 27.5527 27.6602 27.5527h342.704l-107.868 108.105
c-5.27441 5.27051 -8.17969 12.5459 -8.17969 20.0469c0 7.50586 2.90527 14.5439 8.17969 19.8145l16.7871 16.791c5.27832 5.27441 12.3086 8.17578 19.8184 8.17578c7.50098 0 14.5352 -2.89746 19.8135 -8.17578z" />
    <glyph glyph-name="025-wechat" unicode="&#xf116;" 
d="M192 416c93.6963 0 171.616 -55.9678 188.512 -129.952c-9.34375 1.15234 -18.8154 1.95215 -28.5117 1.95215c-105.888 0 -192 -71.7764 -192 -160c0 -10.2725 1.28027 -20.2881 3.51953 -30.0479c-16.416 2.01562 -31.7754 6.33594 -46.5596 11.584l-68.96 -29.5361
l25.3115 50.624c-44.5752 29.248 -73.3115 74.4316 -73.3115 125.376c0 88.3516 85.9521 160 192 160zM128 296c13.248 0 24 10.752 24 24s-10.752 24 -24 24s-24 -10.752 -24 -24s10.752 -24 24 -24zM256 296c13.248 0 24 10.752 24 24s-10.752 24 -24 24
s-24 -10.752 -24 -24s10.752 -24 24 -24zM512 128c0 -40.9277 -24.4482 -76.96 -61.8242 -100.384l29.8242 -59.6162l-86.2402 36.96c-13.4082 -2.91211 -27.2314 -4.95996 -41.7598 -4.95996c-88.3516 0 -160 57.3115 -160 128s71.6484 128 160 128s160 -57.3115 160 -128z
M304 136c13.248 0 24 10.752 24 24s-10.752 24 -24 24s-24 -10.752 -24 -24s10.752 -24 24 -24zM400 136c13.248 0 24 10.752 24 24s-10.752 24 -24 24s-24 -10.752 -24 -24s10.752 -24 24 -24z" />
    <glyph glyph-name="014-twitter" unicode="&#xf10b;" 
d="M512 392.035c-0.078125 -0.113281 -36.1367 -49.5547 -48.8438 -66.5195c-6.34375 -8.47266 -9.51172 -19.5117 -8.92188 -31.0781c3.90625 -76.4023 -14.8984 -149.82 -72.207 -201.434c-68.0391 -61.2773 -169.105 -72.7422 -258.871 -58.6641
c-40.3828 6.33594 -81.2539 27.457 -92.8203 33.7812l-30.3359 16.5859l32.8438 10.7969c35.8984 11.8086 57.7383 19.1289 84.7734 30.6016c-27.0703 13.1094 -47.9297 36.6914 -57.9727 67.1719l-7.64062 23.1992l6.26172 -0.960938
c-5.94141 5.99219 -10.6289 12.0664 -14.2695 17.5977c-12.9297 19.6406 -19.7773 43.6484 -18.3203 64.2148l1.4375 20.2461l12.1172 -4.69531c-5.11328 9.65625 -8.80469 19.9688 -10.9766 30.7812c-5.29297 26.3555 -0.863281 54.3594 12.4766 78.8516l10.5547 19.3828
l14.125 -16.9648c44.6602 -53.6484 101.227 -85.4727 168.363 -94.7891c-6.17578 42.5664 12.3398 78.9844 46.8359 100.191c42.125 25.8906 101.047 24.3164 140.688 -11.3125c15.0938 3.91797 74.6328 25.8203 74.6328 25.8203l-19.0742 -54.4727
c3.64062 0.304688 2.9375 0.183594 35.1445 1.66797zM439.168 343.484c4.49609 6 8.23438 11.0039 11.3516 15.1836l-16.5156 0.0117188l12.9375 36.9453c-6.21484 -2.21484 -12.5625 -4.25 -20.2969 -6.17188c-8.61719 -2.14062 -17.8242 0.324219 -24.6328 6.58984
c-31.5234 29.0312 -77.0352 26.375 -105.707 8.75391c-13.7266 -8.4375 -44.1602 -33.3633 -30.2734 -82.4531c0.625 -2.20703 0.6875 -2.26172 3.07422 -25.4453c-10.8438 2.51562 -118.57 -4.63672 -210.32 90.5273c-8.63672 -33.1172 3.14453 -67.5664 32.543 -90.4961
l40.8008 -31.8281l-51.4961 5.09375c-10.4883 1.03906 -16.9922 2.10547 -22.5703 3.60156c2.10156 -7.69922 5.60547 -16.0508 10.9688 -24.2031c8.16797 -12.4062 23.5781 -28.582 50.6133 -35.2031l55.6367 -13.625l-55.1758 -15.3672
c-7.23047 -2.01562 -14.4922 -3.23438 -22.0234 -3.67188c14.1836 -21.8047 37.2578 -35.2344 64.9688 -37.0078l57.8516 -3.70312l-52.3984 -24.8008c-37.5352 -17.7656 -60.7773 -26.9961 -90.875 -37.3516c14.8555 -6.08984 32.8047 -12.1875 50.1719 -14.9102
c95.8984 -15.043 181.254 3.66406 234.172 51.3242c45.3008 40.7969 66.2695 100.562 62.3281 177.629c-0.945312 18.5469 4.33203 36.5117 14.8672 50.5781zM439.168 343.484z" />
    <glyph glyph-name="015-twitter-1" unicode="&#xf10c;" 
d="M191.012 28.957c-22.1406 0 -44.9297 1.79297 -67.8555 5.38672c-40.3789 6.33594 -81.2539 27.457 -92.8203 33.7812l-30.3359 16.5859l32.8438 10.8008c35.9023 11.8047 57.7422 19.1289 84.7773 30.5977c-27.0703 13.1094 -47.9336 36.6914 -57.9766 67.1758
l-7.64062 23.1953l6.26562 -0.957031c-5.94141 5.98828 -10.6328 12.0664 -14.2695 17.5938c-12.9336 19.6445 -19.7812 43.6484 -18.3242 64.2188l1.4375 20.2461l12.1211 -4.69531c-5.11328 9.65625 -8.80859 19.9688 -10.9805 30.7773
c-5.29297 26.3594 -0.863281 54.3633 12.4766 78.8516l10.5586 19.3828l14.1211 -16.9609c44.6602 -53.6484 101.227 -85.4727 168.363 -94.7891c-2.74219 18.9023 -0.6875 37.1445 6.11328 53.4961c7.91797 19.0391 22.0039 35.1836 40.7227 46.6914
c20.7891 12.7773 46 18.9688 70.9883 17.4336c26.5117 -1.62891 50.582 -11.5625 69.6992 -28.7461c9.33594 2.42578 16.2148 5.01562 25.5117 8.51562c5.59375 2.10547 11.9375 4.49609 19.875 7.23047l29.25 10.0781l-19.0742 -54.4766
c1.25781 0.105469 2.55469 0.195312 3.91016 0.253906l31.2344 1.41406l-18.4609 -25.2305c-1.05859 -1.44531 -1.32812 -1.85547 -1.70312 -2.42188c-1.48828 -2.24219 -3.33984 -5.03125 -28.6797 -38.8672c-6.34375 -8.47266 -9.51172 -19.5078 -8.92188 -31.0781
c2.24609 -43.9688 -3.14844 -83.75 -16.043 -118.234c-12.1953 -32.625 -31.0938 -60.6172 -56.1641 -83.1992c-31.0234 -27.9375 -70.582 -47.0664 -117.582 -56.8477c-23.0547 -4.79688 -47.8125 -7.20312 -73.4375 -7.20312zM191.012 28.957z" />
    <glyph glyph-name="093-long-arrow" unicode="&#xf15a;" 
d="M468.468 250.338c11.9531 -16.3232 8.41016 -39.2461 -7.91309 -51.1982c-15.3193 -10.2705 -35.8047 -8.02832 -48.54 5.31152l-101.291 101.291c-6.0498 5.99512 -11.0088 12.999 -14.6533 20.6982l-3.66309 7.87598v-361.204
c0.0273438 -2.12207 -0.128906 -4.24219 -0.469727 -6.33691c-3.23828 -19.9717 -22.0537 -33.5352 -42.0254 -30.2969c-18.3945 3.51562 -31.4668 19.9346 -30.7715 38.6484v359.739l-4.94531 -10.9902c-3.47949 -6.7627 -7.99121 -12.9414 -13.3711 -18.3164
l-101.475 -101.108c-12.7344 -13.3398 -33.2207 -15.582 -48.5391 -5.31152c-1.26367 0.96875 -2.46387 2.01855 -3.5918 3.14258c-14.3252 14.2871 -14.3574 37.4814 -0.0712891 51.8076l183.166 183.166l0.0292969 0.0292969
c14.3125 14.2979 37.5078 14.2852 51.8057 -0.0302734l183.167 -183.167c1.13379 -1.17773 2.18652 -2.43066 3.15234 -3.75z" />
    <glyph glyph-name="021-linkedin" unicode="&#xf112;" 
d="M0 -64v352h114.496v-352h-114.496zM426.368 283.872c49.1836 -12.832 85.6318 -57.1523 85.6318 -110.336v-237.536h-114.464v224c-36.5117 88.5117 -123.04 -32 -123.04 -32v-192h-114.496v352h114.496v-67.2959c13.9521 18.752 56.2881 67.2959 123.04 67.2959
c7.80762 0 14.4639 -0.864258 20.5439 -2.08008c1.56836 -0.255859 3.10352 -0.543945 4.63965 -0.895508c1.28027 -0.352539 2.43262 -0.768555 3.64844 -1.15234zM0 392c0 30.9277 25.0723 56 56 56s56 -25.0723 56 -56s-25.0723 -56 -56 -56s-56 25.0723 -56 56z" />
    <glyph glyph-name="099-tripadvisor-2" unicode="&#xf15f;" 
d="M132.995 198.977c16.541 0 29.999 -13.458 29.999 -29.999s-13.458 -29.999 -29.999 -29.999c-16.542 0 -29.999 13.458 -29.999 29.999c0 16.542 13.458 29.999 29.999 29.999zM132.995 158.978c5.51367 0 10 4.48633 10 10c0 5.51465 -4.48633 10 -10 10
s-10 -4.48535 -10 -10c0 -5.51367 4.48633 -10 10 -10zM132.995 234.975c36.3906 0 65.9971 -29.6055 65.9971 -65.9971c0 -36.3906 -29.6055 -65.9961 -65.9971 -65.9961s-65.9971 29.6045 -65.9971 65.9961s29.6045 65.9971 65.9971 65.9971zM132.995 122.979
c25.3633 0 45.998 20.6357 45.998 45.998c0 25.3633 -20.6348 45.998 -45.998 45.998s-45.998 -20.6348 -45.998 -45.998c0 -25.3623 20.6348 -45.998 45.998 -45.998zM378.985 198.977c16.542 0 29.999 -13.458 29.999 -29.999s-13.458 -29.999 -29.999 -29.999
s-29.999 13.458 -29.999 29.999c0 16.542 13.458 29.999 29.999 29.999zM378.985 158.978c5.51367 0 10 4.48633 10 10c0 5.51465 -4.48633 10 -10 10c-5.51465 0 -10 -4.48535 -10 -10c0 -5.51367 4.48535 -10 10 -10zM378.985 234.975
c36.3916 0 65.998 -29.6055 65.9971 -65.9971c0 -36.3906 -29.6055 -65.9961 -65.9971 -65.9961s-65.9971 29.6045 -65.9971 65.9961s29.6045 65.9971 65.9971 65.9971zM378.985 122.979c25.3623 0 45.998 20.6357 45.998 45.998c0 25.3633 -20.6357 45.998 -45.998 45.998
c-25.3633 0 -45.998 -20.6348 -45.998 -45.998c0 -25.3623 20.6348 -45.998 45.998 -45.998zM473.836 90.0371c3.94434 -3.86621 4.00684 -10.1982 0.142578 -14.1406c-0.313477 -0.320312 -0.630859 -0.642578 -0.948242 -0.960938
c-1.95508 -1.95117 -4.51465 -2.92871 -7.07324 -2.92871c-2.55957 0 -5.11816 0.977539 -7.07129 2.92871c-3.9043 3.9043 -3.9043 10.2363 0 14.1426c0.271484 0.270508 0.541016 0.543945 0.80957 0.816406c3.86426 3.94336 10.1953 4.00781 14.1406 0.142578z
M509.85 192.746c4.71777 -26.0879 1.6377 -52.6777 -8.90625 -76.8955c-2.2041 -5.06543 -8.09668 -7.38086 -13.1592 -5.17773c-5.06543 2.2041 -7.38184 8.0957 -5.17773 13.1592c16.9023 38.8242 10.8682 82.7285 -14.9727 115.24
c-0.166016 0.18457 -0.318359 0.37793 -0.46875 0.572266c-2.57227 3.19336 -5.32715 6.2793 -8.28027 9.23242c-21.3408 21.3428 -49.7178 33.0967 -79.8994 33.0967c-30.1826 0 -58.5576 -11.7539 -79.8994 -33.0967
c-21.3428 -21.3408 -33.0967 -49.7158 -33.0967 -79.8994c0 -25.4873 8.38184 -49.6865 23.8408 -69.4492c0.360352 -0.383789 0.68457 -0.791016 0.975586 -1.21875c2.57617 -3.2002 5.33203 -6.28418 8.2793 -9.23145c33.4033 -33.4053 84.626 -42.498 127.461 -22.6348
c5.00977 2.32227 10.9561 0.143555 13.2793 -4.86523c2.32324 -5.00781 0.145508 -10.9541 -4.86523 -13.2783c-17.7949 -8.25293 -36.8252 -12.2588 -55.7217 -12.2588c-34.6436 -0.00195312 -68.8584 13.457 -94.2949 38.8936
c-0.467773 0.46875 -0.923828 0.943359 -1.38281 1.41602l-19.1621 -28.3174c-1.86035 -2.75 -4.96387 -4.39648 -8.28223 -4.39648c-3.31934 0 -6.42188 1.64746 -8.28223 4.39648l-19.3018 28.5234c-24.1943 -25.0029 -58.0791 -40.5732 -95.5371 -40.5732
c-73.334 0 -132.995 59.6602 -132.995 132.994c0 28.7861 9.19727 55.4639 24.8008 77.2559l-23.293 37.4609c-1.91699 3.08301 -2.0127 6.96387 -0.249023 10.1377c1.76465 3.17383 5.11035 5.14258 8.74121 5.14258h91.625
c31.167 23.6104 69.8428 39.4473 112.098 45.8662c5.4502 0.831055 10.5596 -2.9248 11.3896 -8.38477c0.829102 -5.46094 -2.92578 -10.5596 -8.38574 -11.3887c-26.4492 -4.01855 -51.3066 -12.0195 -73.4756 -23.4863c50.9639 -3.90625 93.9736 -36.667 112.697 -81.9277
c6.59961 16.0244 16.3711 30.7402 28.9951 43.3652c22.6855 22.6865 52.125 36.1641 83.7822 38.5635c-22.1729 11.4688 -47.0332 19.4697 -73.4883 23.4873c-5.45996 0.829102 -9.21484 5.92773 -8.38672 11.3877c0.829102 5.46094 5.93262 9.21387 11.3887 8.38574
c42.2617 -6.41602 80.9414 -22.2549 112.113 -45.8682h91.6279c3.63086 0 6.97559 -1.96875 8.74023 -5.14258s1.66797 -7.05469 -0.249023 -10.1377l-23.2627 -37.4121c11.3838 -15.8896 19.1211 -34.0674 22.6406 -53.5361zM58.3203 278.973h-30.3281l10.3584 -16.6582
c6.0918 6.1748 12.7773 11.7607 19.9697 16.6582zM132.995 55.9824c62.3057 0 112.995 50.6895 112.995 112.995c0 62.3066 -50.6885 112.996 -112.995 112.996s-112.996 -50.6885 -112.996 -112.996c0 -62.3066 50.6895 -112.995 112.996 -112.995zM270.243 92.3555
c-5.75293 8.12793 -10.5381 16.8242 -14.2949 25.9473c-3.77051 -9.11621 -8.52344 -17.7227 -14.1309 -25.6904l14.2998 -21.1318zM473.659 262.364l10.3291 16.6084h-30.1943c6.82227 -4.65918 13.2637 -9.9834 19.2344 -15.9541
c0.213867 -0.214844 0.417969 -0.438477 0.630859 -0.654297zM256.623 348.017c5.52344 -0.0283203 9.97656 -4.52734 9.9502 -10.0498c-0.0273438 -5.50586 -4.5 -9.9502 -9.99902 -9.9502h-0.0507812l-0.533203 0.000976562c-5.52246 0 -10 4.47852 -10 10
c0 5.52246 4.47754 10 10 10z" />
    <glyph glyph-name="065-phone-call" unicode="&#xf13e;" 
d="M511.95 35.4473c0.714844 -19.8047 -6.18262 -38.832 -19.4189 -53.5791l-0.519531 -0.577148c-0.238281 -0.266602 -0.484375 -0.526367 -0.737305 -0.780273c-29.1328 -29.1309 -69.8252 -44.5098 -117.739 -44.5098
c-0.375 0 -0.74707 0.000976562 -1.12207 0.00195312c-35.3037 0.176758 -73.7705 9.13672 -114.332 26.6328c-10.1426 4.375 -14.8184 16.1436 -10.4434 26.2861c4.37402 10.1436 16.1455 14.8193 26.2852 10.4434c35.0908 -15.1367 69.2178 -23.2148 98.6895 -23.3623
c0.304688 -0.00195312 0.608398 -0.00195312 0.913086 -0.00195312c36.8691 0 67.6514 11.2041 89.1006 32.4326l0.141602 0.157227c13.0469 14.5352 12.252 36.5449 -1.81055 50.1055c-53.6953 51.7783 -79.0459 48.0312 -102.511 25.1504l-37.3535 -37.0742
c-5.85645 -5.81445 -14.6865 -7.43457 -22.2246 -4.0752c-2.11426 0.94043 -52.4277 23.709 -109.126 80.4082l-2.63281 2.62891c-56.7051 56.7051 -79.4746 107.018 -80.415 109.132c-3.35742 7.54004 -1.73828 16.3682 4.0752 22.2256l37.0742 37.3525
c22.8799 23.4619 26.6289 48.8125 -25.1494 102.511c-13.5625 14.0625 -35.5713 14.8564 -50.1084 1.80762l-0.15332 -0.137695c-21.4023 -21.626 -32.6152 -52.7393 -32.4307 -90.0146c0.359375 -71.9189 41.168 -155.449 109.164 -223.445
c12.9639 -12.9609 27.7686 -25.8447 44.0039 -38.2939c8.76562 -6.7207 10.4238 -19.2754 3.70215 -28.041c-6.7207 -8.76562 -19.2754 -10.4219 -28.04 -3.70215c-17.6221 13.5117 -33.7549 27.5605 -47.9502 41.7549c-75.2793 75.2783 -120.468 169.307 -120.879 251.528
c-0.241211 48.4004 15.1494 89.502 44.5078 118.861c0.253906 0.25293 0.514648 0.5 0.780273 0.738281l0.574219 0.516602c14.748 13.2373 33.7637 20.1357 53.5811 19.4209c19.8047 -0.713867 38.2861 -8.96387 52.04 -23.2275
c26.9336 -27.9307 42.4805 -51.333 48.9297 -73.6455c8.88477 -30.749 0.804688 -59.2275 -24.0156 -84.6416c-0.0380859 -0.0390625 -0.0761719 -0.0761719 -0.114258 -0.114258l-26.8398 -27.041c9.5166 -16.8799 30.4316 -49.7461 65.9395 -85.2529l2.63184 -2.63086
c35.502 -35.502 68.3623 -56.418 85.2617 -65.9434l27.04 26.8379c0.0380859 0.0380859 0.0751953 0.0761719 0.113281 0.113281c25.416 24.8213 53.8965 32.9014 84.6416 24.0156c22.3135 -6.44824 45.7158 -21.9961 73.6465 -48.9287
c14.2656 -13.7549 22.5156 -32.2373 23.2295 -52.042z" />
    <glyph glyph-name="017-facebook-1" unicode="&#xf10e;" 
d="M288 272h96l-32 -80h-64v-256h-96v256h-64v80h64v80c0 53.0244 42.9756 96 96 96h64v-80h-32c-17.6641 0 -32 -14.3359 -32 -32v-64z" />
    <glyph glyph-name="018-whatsapp" unicode="&#xf10f;" 
d="M408.29 378.244c44.9092 -44.9561 69.627 -104.713 69.6006 -168.27c-0.0498047 -131.145 -106.761 -237.85 -237.85 -237.85h-0.0996094c-39.8057 0.0117188 -78.9199 9.99902 -113.663 28.9512l-126.091 -33.0762l33.7441 123.252
c-20.8154 36.0703 -31.7666 76.9922 -31.749 118.913c0.0527344 131.139 106.752 237.835 237.855 237.835c63.624 -0.0263672 123.346 -24.7969 168.252 -69.7559zM240.038 12.2939c108.967 0 197.648 88.6875 197.695 197.695
c0.0175781 52.8252 -20.5254 102.495 -57.8496 139.863s-86.9619 57.958 -139.767 57.9756c-109.046 0 -197.733 -88.6787 -197.774 -197.678c-0.0175781 -37.3535 10.4326 -73.7344 30.2227 -105.211l4.70215 -7.47949l-19.9717 -72.9521l74.8242 19.6289l7.21582 -4.28613
c30.3574 -18.0088 65.1475 -27.542 100.62 -27.5566h0.0820312zM348.478 160.357c5.94141 -2.97656 9.90527 -4.46191 11.3877 -6.94043c1.48828 -2.48145 1.48828 -14.3789 -3.46289 -28.2627c-4.95703 -13.8809 -28.6963 -26.5518 -40.1162 -28.2598
c-10.2422 -1.5293 -23.1943 -2.16797 -37.4326 2.35547c-8.63379 2.73926 -19.7021 6.39258 -33.8818 12.5215c-59.6162 25.7402 -98.5547 85.7695 -101.525 89.7363s-24.2666 32.2266 -24.2666 61.4795s15.3516 43.6289 20.7979 49.5791
c5.44922 5.95312 11.8887 7.43848 15.8496 7.43848c3.96387 0 7.92773 -0.0351562 11.3906 -0.208008c3.65039 -0.181641 8.5459 1.38281 13.374 -10.2012c4.95117 -11.9033 16.8369 -41.1562 18.3193 -44.1299c1.48828 -2.97363 2.48145 -6.44531 0.498047 -10.4121
c-1.98047 -3.96387 -8.42285 -12.3398 -14.8564 -20.3291c-2.63672 -3.26953 -6.07031 -6.17578 -2.60742 -12.1289c3.46875 -5.94727 15.3955 -25.4092 33.0615 -41.168c22.7021 -20.2471 41.8506 -26.5254 47.7949 -29.499
c5.94434 -2.97656 9.40723 -2.47852 12.876 1.48828c3.46875 3.96387 14.8564 17.3525 18.8203 23.2998c3.95801 5.94727 7.9248 4.95996 13.3682 2.97656c5.44922 -1.98633 34.6699 -16.3594 40.6113 -19.3359zM348.478 160.357z" />
    <glyph glyph-name="073-right-arrow" unicode="&#xf146;" 
d="M398.23 211.979c5.28223 -5.28711 8.18359 -12.3467 8.16699 -19.8848c0.0166016 -7.50977 -2.88477 -14.5732 -8.16699 -19.8643l-228.059 -228.05c-5.26953 -5.27441 -12.3047 -8.17969 -19.8057 -8.17969s-14.5312 2.90527 -19.8057 8.17969l-16.7793 16.7705
c-5.26953 5.27832 -8.17871 12.3086 -8.17871 19.8145c0 7.49609 2.90918 14.5273 8.17871 19.8008l191.541 191.541l-191.328 191.328c-10.9189 10.9141 -10.9189 28.6797 0 39.6104l16.7793 16.7754c5.26953 5.27441 12.3047 8.17969 19.8057 8.17969
s14.5352 -2.90527 19.8057 -8.17969z" />
    <glyph glyph-name="056-smartphone" unicode="&#xf135;" 
d="M215.651 399.266h-89.9121l-16.2451 48.7344h122.402zM42.8154 -15.2656v0.000976562h255.76c5.94434 0 11.6289 1.12402 16.8672 3.15137v-21.8867c0 -16.5693 -13.4316 -30 -30 -30h-229.494c-16.5693 0 -30 13.4307 -30 30v21.8857
c5.2373 -2.02734 10.9219 -3.15137 16.8672 -3.15137zM352.681 210.928l-104.286 80.2578h208.572zM352.681 173.072l133.371 102.642v-182.899h-266.742v182.899zM189.31 321.186v-258.37h126.132v-31.2139c0 -9.30078 -7.56641 -16.8662 -16.8672 -16.8662h-255.759
c-9.30176 0 -16.8672 7.56543 -16.8672 16.8662v386.398c0 16.5693 13.4307 30 30 30h21.9229l26.2451 -78.7344h133.158l26.2441 78.7344h21.9238c16.5684 0 30 -13.4307 30 -30v-96.8145h-126.133z" />
    <glyph glyph-name="084-down-arrow" unicode="&#xf151;" 
d="M503.816 317.933c5.27832 -5.2666 8.18359 -12.4014 8.18359 -19.9062c-0.00878906 -7.50098 -2.90527 -14.7354 -8.18359 -20.0059l-227.834 -228.245c-5.26953 -5.26562 -12.292 -8.9834 -19.7969 -8.9834h-0.0878906c-7.56738 0 -14.5898 3.71289 -19.8594 8.9834
l-228.046 228.865c-10.9229 10.915 -10.9229 28.6934 0 39.6084l16.7754 16.7832c5.27344 5.27441 12.3086 8.17578 19.8096 8.17578s14.5322 -2.90137 19.8018 -8.17578l191.535 -191.535l191.314 191.323c5.27832 5.27344 12.3096 8.17969 19.8105 8.17969
c7.50488 0 14.5273 -2.90625 19.8057 -8.17969z" />
    <glyph glyph-name="043-checkmark" unicode="&#xf128;" 
d="M234.668 -21.3398c-129.387 0 -234.668 105.277 -234.668 234.664s105.281 234.668 234.668 234.668c44.9922 0 88.7656 -12.8203 126.59 -37.0977c7.42578 -4.78125 9.60156 -14.6797 4.82031 -22.125c-4.79688 -7.44531 -14.6758 -9.59766 -22.1211 -4.82031
c-32.6406 20.9727 -70.4414 32.043 -109.289 32.043c-111.746 0 -202.668 -90.9219 -202.668 -202.668c0 -111.742 90.9219 -202.664 202.668 -202.664c111.742 0 202.664 90.9219 202.664 202.664c0 6.67969 -0.320312 13.293 -0.9375 19.7969
c-0.851562 8.8125 5.58984 16.6211 14.3789 17.4727c8.83203 0.8125 16.6172 -5.58984 17.4727 -14.3789c0.722656 -7.53125 1.08594 -15.168 1.08594 -22.8906c0 -129.387 -105.277 -234.664 -234.664 -234.664zM234.668 -21.3398zM261.332 159.992
c-4.09375 0 -8.19141 1.55859 -11.3047 4.69141l-96 96c-6.25 6.25391 -6.25 16.3867 0 22.6367s16.3828 6.25 22.6328 0l84.6953 -84.6953l223.336 223.34c6.25391 6.25 16.3867 6.25 22.6367 0s6.25 -16.3828 0 -22.6328l-234.668 -234.668
c-3.13672 -3.11328 -7.23047 -4.67188 -11.3281 -4.67188zM261.332 159.992z" />
    <glyph glyph-name="002-star-1" unicode="&#xf101;" 
d="M410.272 -64.0156c-2.20312 0 -4.42188 0.453125 -6.5 1.37695l-147.781 65.7939l-147.781 -65.7939c-5.46875 -2.42578 -11.8438 -1.58105 -16.5 2.14355c-4.67188 3.74121 -6.85938 9.78223 -5.6875 15.6504l32.5938 163.28l-113.938 114.138
c-4.17188 4.17871 -5.70312 10.3135 -4 15.9785c1.70312 5.64941 6.39062 9.90723 12.1719 11.0645l163.312 32.7256l65.2031 146.956c5.15625 11.5811 24.0938 11.5811 29.25 0l65.2031 -146.956l163.312 -32.7256c5.78125 -1.15723 10.4688 -5.41504 12.1719 -11.0645
c1.70312 -5.66504 0.171875 -11.7998 -4 -15.9785l-113.938 -114.138l32.5938 -163.28c1.17188 -5.86816 -1.01562 -11.9092 -5.6875 -15.6504c-2.89062 -2.31543 -6.4375 -3.52051 -10 -3.52051zM255.99 36.7256c2.21875 0 4.43848 -0.454102 6.5 -1.37793
l126.032 -56.1221l-28.2188 141.338c-1.04688 5.25879 0.59375 10.6895 4.375 14.4766l98.8594 99.0195l-142.109 28.4844c-5.09375 1.0166 -9.375 4.44434 -11.4844 9.20215l-53.9531 121.587l-53.9541 -121.587c-2.10938 -4.75781 -6.39062 -8.18555 -11.4844 -9.20215
l-142.109 -28.4844l98.8594 -99.0195c3.78125 -3.78711 5.42188 -9.21777 4.375 -14.4766l-28.2188 -141.338l126.032 56.1221c2.0625 0.923828 4.28125 1.37793 6.49902 1.37793z" />
    <glyph glyph-name="061-letter" unicode="&#xf13a;" 
d="M508.65 332.012c2.07129 -5.4873 3.34961 -11.3691 3.34961 -17.5752v-244.875c0 -9.1416 -2.64355 -17.6064 -6.93945 -24.9912l-141.875 141.979zM461.913 364.524c9.1748 0 17.667 -2.65723 25.0693 -6.98047l-217.626 -217.52
c-6.2334 -6.34473 -17.2529 -6.34473 -23.5967 0l-218.654 218.652c6.91602 3.61133 14.6543 5.84766 22.9814 5.84766h411.826zM4.20117 334.389l145.949 -145.948l-143.407 -143.511c-4.16992 7.30566 -6.74316 15.6357 -6.74316 24.6318v244.875
c0 7.09863 1.52734 13.8301 4.20117 19.9521zM339.478 162.841l140.093 -139.989c-5.51172 -2.0918 -11.4219 -3.37598 -17.6572 -3.37598h-411.826c-6.39062 0 -12.4561 1.31543 -18.0811 3.50781l141.852 141.75l48.3057 -48.417
c19.8174 -19.5918 51.4053 -19.2754 70.9014 0z" />
    <glyph glyph-name="050-placeholder" unicode="&#xf12f;" 
d="M256 328c33.0908 0 60 -26.9092 60 -60c0 -32.7451 -26.2666 -60 -60 -60c-33.1387 0 -60 26.751 -60 60c0 33.0908 26.9092 60 60 60zM256 448c99.2578 0 180 -80.7422 180 -180c0 -32.5342 -8.78906 -64.4238 -25.3701 -92.2119l-139.248 -232.486
c-5.74023 -9.62793 -19.71 -9.77344 -25.6348 -0.205078l-142.896 230.26c-17.5635 28.3887 -26.8506 61.1133 -26.8506 94.6436c0 99.2578 80.7422 180 180 180zM256 177.8c50.8809 0 90.2002 41.4131 90.2002 90.2002c0 49.6289 -40.5713 90.2002 -90.2002 90.2002
s-90.2002 -40.5713 -90.2002 -90.2002c0 -49.2207 39.8555 -90.2002 90.2002 -90.2002z" />
    <glyph glyph-name="036-zoom-in-1" unicode="&#xf121;" 
d="M103.556 188.949c4.16016 -4.15918 4.16016 -10.9229 0.000976562 -15.083c-2.09082 -2.11133 -4.82031 -3.13574 -7.55176 -3.13574c-2.73047 0 -5.46094 1.0459 -7.55176 3.11523l-35.1143 35.1357l-35.1152 -35.1152c-4.16016 -4.15918 -10.9229 -4.15918 -15.083 0
c-4.15918 4.16016 -4.15918 10.9238 0 15.083l42.666 42.667c4.16016 4.16016 10.9229 4.16016 15.083 0zM103.535 124.928c4.16016 -4.15918 4.16016 -10.9219 0 -15.082l-42.667 -42.667c-2.06934 -2.09082 -4.7998 -3.11523 -7.53027 -3.11523
c-2.73145 0 -5.46094 1.0459 -7.55273 3.11523l-42.666 42.667c-4.16016 4.15918 -4.16016 10.9229 0 15.082c4.16016 4.16016 10.9229 4.16016 15.083 0l35.1357 -35.1143l35.1143 35.1143c4.16016 4.16016 10.9229 4.16016 15.083 0zM53.3389 234.73
c5.8877 0 10.665 -4.7793 10.667 -10.667v-149.332c0 -5.91016 -4.7793 -10.667 -10.667 -10.667c-5.88867 0 -10.667 4.7793 -10.667 10.667v149.332c0 5.8877 4.77832 10.667 10.667 10.667zM471.19 301.055c26.3037 -26.3252 40.8096 -61.3535 40.8086 -98.6025
c0 -37.2471 -14.5068 -72.2549 -40.832 -98.5801l-37.7158 -37.7168c-22.165 -22.1641 -51.626 -34.3672 -82.9648 -34.3672c-26.2393 0 -52.2871 -3.88184 -77.375 -11.541l-165.246 -50.3672c-3.49902 -1.21582 -7.10449 -1.83496 -10.6885 -1.83496
c-4.60742 0 -9.19434 1.00293 -13.5039 3.00781c-7.74316 3.60449 -13.6094 10.0254 -16.5322 18.0684c-10.1328 27.8193 1.91992 59.3066 28.0107 73.2588l100.629 57.2373l-176.639 176.639c-9.15137 9.12988 -14.1865 21.2891 -14.1865 34.1963
c0 12.9277 5.03516 25.0879 14.1865 34.2188c9.89844 9.89746 23.04 14.4639 36.8213 12.7568c14.2285 -1.72852 28.4365 -9.59961 42.2607 -23.4238l35.8398 -35.8398c1.77051 9.15234 6.18652 17.8984 13.2695 24.9814c17.7061 17.7275 48.2764 18.3672 66.6865 1.64258
c1.79199 9.4082 6.35742 18.0908 13.3125 25.0234c16.5967 16.5967 42.3887 18.624 61.2041 5.95215c1.62109 9.53613 6.10059 18.6875 13.4609 26.0479c18.8584 18.8584 49.5566 18.8584 68.415 0zM456.087 118.935c22.292 22.335 34.5801 51.9883 34.583 83.5205
c0 31.5518 -12.2871 61.2051 -34.5801 83.5195l-100.778 100.756c-10.5391 10.5391 -27.7119 10.5391 -38.251 0c-10.5381 -10.5391 -10.5381 -27.7119 0 -38.251l10.4756 -10.4746c2.09082 -2.09082 3.13574 -4.82031 3.13574 -7.55176
c0 -2.73047 -1.0459 -5.46094 -3.11523 -7.55176c-4.16016 -4.16016 -10.9229 -4.16016 -15.083 0l-31.8076 31.8076c-10.5391 10.5391 -27.7119 10.5391 -38.25 0c-10.5391 -10.5391 -10.5391 -27.7119 0 -38.251l31.8076 -31.8076
c2.06934 -2.06934 3.11426 -4.7998 3.11426 -7.53027c0 -2.73145 -1.0459 -5.46094 -3.11426 -7.55273c-4.16016 -4.15918 -10.9229 -4.15918 -15.083 0l-58.4951 58.4961c-10.5391 10.5391 -27.7119 10.5391 -38.251 0s-10.5391 -27.7119 0 -38.251l58.4746 -58.4746
c2.09082 -2.09082 3.11426 -4.82031 3.11426 -7.55176c0 -2.73047 -1.0459 -5.46094 -3.11426 -7.55176c-4.16016 -4.16016 -10.9229 -4.16016 -15.083 0l-122.666 122.666c-11.542 11.5615 -22.9551 17.4922 -32.8105 17.4922
c-6.05859 0 -11.542 -2.23926 -16.1064 -6.80469c-5.09961 -5.09863 -7.91504 -11.9043 -7.91504 -19.1357c0 -7.21094 2.81543 -14.0156 7.93555 -19.1152l186.539 -186.535c2.3457 -2.34668 3.47754 -5.67383 3.0293 -8.95996
c-0.448242 -3.28516 -2.41113 -6.20703 -5.3125 -7.85059l-113.022 -64.2979c-17.0459 -9.10938 -24.79 -29.376 -18.2832 -47.2959c0.981445 -2.66699 2.94434 -4.82129 5.52539 -6.01562c2.58105 -1.2168 5.48145 -1.34473 8.14844 -0.363281
c0.169922 0.0634766 0.362305 0.12793 0.533203 0.170898l165.503 50.4521c27.1133 8.27832 55.252 12.459 83.6035 12.459c25.6426 0 49.7705 9.98438 67.8828 28.1172z" />
    <glyph glyph-name="089-up-arrow" unicode="&#xf156;" 
d="M503.814 106.176c10.9141 -10.918 10.9141 -28.6885 0 -39.6074l-16.7842 -16.7871c-5.27344 -5.26562 -12.2998 -8.1709 -19.8008 -8.1709c-7.50488 0 -14.5361 2.90527 -19.8057 8.1709l-191.537 191.545l-191.325 -191.324
c-5.27344 -5.27051 -12.3047 -8.17969 -19.8057 -8.17969s-14.5352 2.90918 -19.8057 8.17969l-16.7793 16.7793c-5.27344 5.26953 -8.1709 12.3047 -8.1709 19.8057s2.90137 14.5312 8.1709 19.8057l227.844 227.835c5.26172 5.26953 12.292 8.16211 19.793 8.16211
c7.65527 0 14.6816 -2.89258 19.9512 -8.16211z" />
    <glyph glyph-name="041-checked" unicode="&#xf126;" 
d="M497.36 378.005c7.52539 -7.54492 7.5127 -19.7656 -0.0380859 -27.291l-245.709 -245.064c-3.61523 -3.60254 -8.52246 -5.62793 -13.623 -5.62793c-0.134766 0 -0.271484 0 -0.412109 0.00585938c-5.24902 0.108398 -10.2275 2.35352 -13.7842 6.21973l-97.126 105.48
c-7.2168 7.8418 -6.71484 20.0498 1.12598 27.2666c7.84668 7.21582 20.0488 6.70801 27.2656 -1.12598l83.5225 -90.7129l231.493 230.882c7.53223 7.52637 19.7529 7.5127 27.2852 -0.0322266zM492.703 211.297c10.6592 0 19.2969 -8.63867 19.2969 -19.2969
c0 -141.154 -114.846 -256 -256 -256c-141.16 0 -256 114.846 -256 256c0 141.16 114.84 256 256 256c10.6582 0 19.2969 -8.6377 19.2969 -19.2969c0 -10.6582 -8.63867 -19.2959 -19.2969 -19.2959c-119.876 0 -217.407 -97.5312 -217.407 -217.407
c0 -119.883 97.5312 -217.407 217.407 -217.407c119.883 0 217.407 97.5244 217.407 217.407c0 10.6592 8.6377 19.2969 19.2959 19.2969z" />
    <glyph glyph-name="051-email" unicode="&#xf130;" 
d="M339.392 189.376l172.608 113.728v-222.848zM0 303.104l172.608 -113.728l-172.608 -109.12v222.848zM480 368c15.9678 0 28.6396 -11.9043 31.04 -27.2324l-255.04 -168.031l-255.04 168.031c2.40039 15.3281 15.0723 27.2324 31.04 27.2324h448zM310.08 170.048
l200.896 -127.04c-2.46387 -15.2002 -15.0713 -27.0078 -30.9756 -27.0078h-448c-15.9043 0 -28.5117 11.8076 -30.9756 27.0078l200.896 127.072l45.2803 -29.8564c2.6875 -1.75977 5.72754 -2.62402 8.7998 -2.62402s6.1123 0.864258 8.7998 2.62402z" />
    <glyph glyph-name="100-skype" unicode="&#xf160;" 
d="M482 192c0 -4.83594 -0.160156 -9.625 -0.453125 -14.3867c19.6875 -25.9688 30.4531 -58.918 30.4531 -91.6133c0 -82.7031 -68.2969 -150 -151 -150c-32.6953 0 -64.6445 10.7656 -90.6133 30.4531c-4.76172 -0.292969 -9.55078 -0.453125 -14.3867 -0.453125
c-124.07 0 -226 101.93 -226 226c0 4.83594 0.160156 9.625 0.453125 14.3867c-19.6875 25.9688 -30.4531 57.918 -30.4531 90.6133c0 82.7031 67.2969 151 150 151c32.6953 0 64.6445 -10.7656 90.6133 -30.4531c4.76172 0.292969 10.5508 0.453125 15.3867 0.453125
c124.07 0 226 -101.93 226 -226zM256 41c74.0078 0 120 44.7539 120 90c0 45.0352 -45.7852 91 -120 91c-24.2227 0 -61 11.9922 -61 30c0 17.8438 36.8906 29.5625 59.168 29.5625c27.4961 0 49.9375 -9.93359 57.8906 -19.7031
c12.5234 -15.4609 40.5625 -13.2617 50.2461 6.57812c9.96484 20.7305 -6.88672 38.1953 -26.0312 50.9453c-20.832 13.918 -50.5977 20.8633 -80.3477 20.8516c-78.5391 -0.0273438 -120.926 -44.5 -120.926 -88.2344c0 -45.0352 46.7852 -90 121 -90
c24.2227 0 60 -12.9922 60 -31c0 -17.8438 -35.8906 -29.5625 -58.1719 -29.5625c-27.4922 0 -50.9336 9.93359 -58.9023 19.7344c-11.1211 13.6914 -39.9102 14.5312 -50.2305 -6.60938c-9.96484 -20.7305 6.88281 -38.1797 26.0156 -50.9453
c21.8438 -14.5742 51.3633 -22.6172 81.2891 -22.6172zM256 41z" />
    <glyph glyph-name="068-smartphone-1" unicode="&#xf141;" 
d="M342.948 448c29.5234 0 53.46 -23.8428 53.4639 -53.3467l-0.251953 -405.144c0 -29.4023 -24.0547 -53.3223 -53.4561 -53.3223l-173.253 -0.1875c-29.4062 0 -53.8633 23.916 -53.8633 53.3145v405.311c0 29.3975 24.9854 53.375 54.3916 53.375h172.969z
M231.476 415.999c-4.41992 0 -7.99902 -3.57812 -7.99902 -7.99902s3.5791 -7.99902 7.99902 -7.99902h50.1836c4.4082 0 7.99902 3.57812 7.99902 7.99902s-3.59082 7.99902 -7.99902 7.99902h-50.1836zM201.321 413.453
c-1.47656 -1.47949 -2.32227 -3.55762 -2.31836 -5.68066c0 -2.08203 0.841797 -4.16016 2.31836 -5.64062c1.52539 -1.48438 3.5625 -2.3584 5.68164 -2.3584c2.07812 0 4.16406 0.874023 5.63965 2.3584c1.48438 1.48438 2.36328 3.55859 2.36328 5.64062
c0 2.12305 -0.878906 4.20117 -2.36328 5.68066c-2.95996 3.00195 -8.35645 2.96094 -11.3213 0zM254.953 -48.1436c13.1963 0 23.9365 10.7441 23.9365 23.9404c0 13.2002 -10.7363 23.9404 -23.9365 23.9404c-13.2012 0 -23.9365 -10.7402 -23.9365 -23.9404
c0 -13.1963 10.7354 -23.9404 23.9365 -23.9404zM371.581 16.0078v355.99h-227.994v-355.99h227.994z" />
    <glyph glyph-name="069-smartphone-2" unicode="&#xf142;" 
d="M216.971 399.266h-89.9121l-16.2441 48.7344h122.4zM44.1348 -15.2656v0.000976562h255.76c5.94531 0 11.6299 1.12402 16.8672 3.15137v-21.8867c0 -16.5693 -13.4307 -30 -30 -30h-229.494c-16.5684 0 -30 13.4307 -30 30v21.8857
c5.23828 -2.02734 10.9229 -3.15137 16.8672 -3.15137zM211.961 244.518c-5.56445 7.27246 -7.68457 16.2305 -5.96973 25.2246c1.70215 8.9209 6.89941 16.418 14.6465 21.1318l62.4355 34.876l44.5166 -44.5166l-40.5977 -40.5986l7.78809 -10.4043
c28.0508 -37.4795 58.9756 -68.3955 94.541 -94.5137l10.3789 -7.62305l40.5146 40.5146l44.5176 -44.5176l-34.875 -62.4346c-4.71582 -7.74609 -12.2129 -12.9453 -21.1328 -14.6475c-8.99316 -1.71387 -17.9512 0.404297 -25.2236 5.96973
c-71.9922 55.1045 -136.435 119.548 -191.54 191.539zM188.139 226.284c38.6104 -50.4434 81.6855 -97.2744 128.622 -139.934v-54.749c0 -9.30078 -7.56543 -16.8662 -16.8672 -16.8662h-255.759c-9.30078 0 -16.8672 7.56543 -16.8672 16.8662v386.398
c0 16.5693 13.4316 30 30 30h21.9238l26.2441 -78.7344h133.157l26.2451 78.7344h21.9229c16.5693 0 30 -13.4307 30 -30v-83.5107l-28.5137 28.5137l-82.4609 -46.0625l-0.402344 -0.233398c-15.0508 -9.03027 -25.5693 -24.0986 -28.8594 -41.3418
c-3.29102 -17.248 0.941406 -35.1377 11.6143 -49.0811z" />
    <glyph glyph-name="075-right-arrow-2" unicode="&#xf148;" 
d="M299.032 347.584l139.312 -132.688c6.32812 -6.3125 9.65625 -14.3447 9.65625 -22.8965s-3.32812 -16.584 -9.37598 -22.624l-139.592 -132.96c-3.09668 -2.95215 -7.06445 -4.41602 -11.0322 -4.41602c-4.22363 0 -8.44043 1.66406 -11.584 4.95996
c-6.0957 6.40039 -5.84766 16.5283 0.551758 22.624l122.225 116.416h-319.192c-8.83203 0 -16 7.16797 -16 16s7.16797 16 16 16h319.704l-122.736 116.408c-6.3916 6.0957 -6.64746 16.2236 -0.551758 22.624c6.08789 6.39941 16.2236 6.63965 22.6162 0.551758z" />
    <glyph glyph-name="096-left-quote" unicode="&#xf15c;" 
d="M163.869 212.02c30.7412 -8.8457 56.1719 -28.8301 71.6123 -56.2471c15.6074 -27.7285 19.4795 -59.8613 10.9131 -90.501c-14.3398 -51.252 -61.4775 -87.0527 -114.637 -87.0527c-0.176758 0 -0.348633 0.00488281 -0.526367 0.0107422
c-43.083 1.68066 -76.5635 18.5068 -99.5127 50.0166c-41.0098 56.3115 -36.1279 145.775 -19.4795 205.282c28.3633 101.431 95.5762 172.27 163.445 172.27c4.21582 0 8.46973 -0.290039 12.6426 -0.859375c3.83984 -0.526367 7.2666 -2.69141 9.39844 -5.93457
c2.13281 -3.24414 2.75 -7.24512 1.70801 -10.9834l-12.3574 -44.2002c-1.42871 -5.09668 -5.71973 -8.88281 -10.9561 -9.66211c-56.543 -8.40527 -84.9268 -83.041 -96.7422 -126.296c12.2559 5.30078 28.0615 9.62988 47.0039 9.62988
c12.2666 0 24.877 -1.84277 37.4873 -5.47266zM496.629 155.767c15.6016 -27.7227 19.4795 -59.8613 10.9238 -90.5c-14.3389 -51.2529 -61.4824 -87.0537 -114.636 -87.0537c-0.182617 0 -0.354492 0.00585938 -0.532227 0.0107422
c-43.0781 1.67578 -76.5635 18.5078 -99.5068 50.0117c-41.0156 56.3223 -36.1338 145.786 -19.4902 205.293c28.3672 101.431 95.5811 172.27 163.45 172.27c4.22168 0 8.47461 -0.290039 12.6426 -0.859375c3.84473 -0.526367 7.27148 -2.69141 9.39844 -5.93457
c2.13184 -3.24414 2.75 -7.24512 1.70801 -10.9834l-12.3584 -44.2002c-1.43359 -5.09668 -5.71973 -8.88281 -10.9561 -9.66211c-56.5469 -8.40527 -84.9307 -83.041 -96.7461 -126.296c12.2559 5.30078 28.0664 9.62988 47.0088 9.62988
c12.2617 0 24.8711 -1.84277 37.4814 -5.47266c30.7422 -8.8457 56.1719 -28.8301 71.6123 -56.2529z" />
    <glyph glyph-name="044-confirmation" unicode="&#xf129;" 
d="M367.083 260.416c8.33008 -8.33105 8.33008 -21.835 0 -30.165l-106.667 -106.667c-4.16016 -4.1709 -9.62109 -6.25098 -15.083 -6.25098c-5.46094 0 -10.9219 2.08008 -15.082 6.25098l-53.334 53.333c-8.33008 8.33105 -8.33008 21.835 0 30.166
c8.32031 8.33008 21.8457 8.33008 30.166 0l38.25 -38.2402l91.584 91.5732c8.32031 8.33105 21.8457 8.33105 30.166 0zM490.667 213.333c11.7754 0 21.333 -9.55664 21.333 -21.333c0 -141.163 -114.837 -256 -256 -256s-256 114.837 -256 256s114.837 256 256 256
c68.7148 0 133.237 -26.8584 181.664 -75.627c8.29883 -8.3623 8.25586 -21.8662 -0.106445 -30.165c-8.36328 -8.30957 -21.8779 -8.2666 -30.166 0.106445c-40.3623 40.6406 -94.1221 63.0186 -151.392 63.0186c-117.632 0 -213.333 -95.7012 -213.333 -213.333
s95.7012 -213.333 213.333 -213.333s213.333 95.7012 213.333 213.333c0 11.7764 9.55762 21.333 21.334 21.333z" />
    <glyph glyph-name="029-download-1" unicode="&#xf11a;" 
d="M409.785 169.5l-153.785 -153.785l-153.785 153.785l28.2852 28.2852l105.5 -105.5v355.715h40v-355.715l105.5 105.5zM512 -24v-40h-512v40h512zM512 -24z" />
    <glyph glyph-name="076-left-arrow" unicode="&#xf149;" 
d="M168.837 192l219.582 -219.582c8.33105 -8.33105 8.33105 -21.8389 0 -30.1699s-21.8389 -8.33105 -30.1699 0l-234.667 234.667c-8.33105 8.33105 -8.33105 21.8389 0 30.1699l234.666 234.667c8.33105 8.33105 21.8389 8.33105 30.1699 0s8.33105 -21.8389 0 -30.1699z
" />
    <glyph glyph-name="001-star" unicode="&#xf100;" 
d="M511.651 261.754c3.37793 -10.4111 0.254883 -21.7812 -7.95312 -28.9824l-111.94 -98.1572l33.0059 -145.37c2.41406 -10.6885 -1.73438 -21.7412 -10.6035 -28.1523c-8.84863 -6.41113 -20.626 -6.92383 -29.9922 -1.32617l-127.671 76.3516l-127.694 -76.3516
c-4.31738 -2.58398 -9.15137 -3.86719 -13.9805 -3.86719c-5.62109 0 -11.2217 1.72949 -15.9883 5.19336c-8.86914 6.41113 -13.0176 17.4639 -10.6035 28.1523l33.0059 145.37l-111.94 98.1572c-8.21191 7.20117 -11.3311 18.5947 -7.95312 28.9824
c3.39648 10.3672 12.5908 17.7217 23.4482 18.7236l148.109 13.4443l58.5244 137.018c4.29297 10.0664 14.1289 16.5635 25.0723 16.5635s20.7754 -6.49707 25.0957 -16.5635l58.5244 -137.018l148.086 -13.4443c10.8574 -0.982422 20.0713 -8.33691 23.4482 -18.7236z
M258.955 37.5928z" />
    <glyph glyph-name="053-email-1" unicode="&#xf132;" 
d="M412.903 390.193c9.11719 0 16.5156 -7.39941 16.5156 -16.5156v-18.2012l-214.709 -95.8262l-214.71 95.8262v18.2012c0 9.11621 7.39941 16.5156 16.5166 16.5156h396.387zM379.871 125.936c73.001 0 132.129 -59.1279 132.129 -132.129l-7.92773 7.92773
c-37.3262 37.3262 -87.5352 58.1367 -140.387 58.1367h-33.3633v-66.0645l-132.129 99.0967l132.129 99.0967v-66.0645h49.5488zM221.448 226.453l207.971 92.8535v-168.762c-15.7559 4.9873 -32.1729 8.42285 -49.5479 8.42285h-16.5166v33.0322
c0 12.5195 -7.06836 23.9482 -18.2666 29.5635c-11.165 5.5498 -24.6094 4.36035 -34.585 -3.1377l-132.129 -99.0967c-8.32422 -6.24316 -13.2129 -16.0537 -13.2129 -26.4258h-148.645c-9.11719 0 -16.5166 7.39941 -16.5166 16.5156v209.888l207.971 -92.8535
c2.14746 -0.925781 4.45996 -1.4209 6.73926 -1.4209s4.59082 0.495117 6.73828 1.4209z" />
    <glyph glyph-name="030-cloud-computing" unicode="&#xf11b;" 
d="M413.492 319.09c55.9766 -6.85156 98.1562 -54.2109 98.5078 -110.605c0.382812 -61.9258 -49.5078 -112.441 -111.434 -112.828h-80.0977c-8.84766 0 -16.0195 7.17188 -16.0195 16.0195s7.17188 16.0195 16.0195 16.0195h80.0938
c44.2383 0 80.0977 35.8594 80.0977 80.0938c0 44.2383 -35.8594 80.0977 -80.0977 80.0977c-8.36719 -0.0546875 -15.5234 5.99609 -16.8672 14.2578c-6.83594 59.1094 -53.4648 105.738 -112.574 112.574c-70.3086 8.13281 -133.898 -42.2695 -142.031 -112.574
c-0.898438 -8.11719 -7.75781 -14.2578 -15.9219 -14.2578c-44.2383 0.261719 -80.3086 -35.3867 -80.5703 -79.625c-0.257812 -44.2344 35.3867 -80.3047 79.625 -80.5664h80.0938c8.84766 0 16.0195 -7.17188 16.0195 -16.0195s-7.17188 -16.0195 -16.0195 -16.0195
h-80.0938c-56.9961 -0.0390625 -104.953 42.6797 -111.477 99.3008c-7.08594 61.5234 37.043 117.141 98.5625 124.23c12.6875 63.4531 62.3086 113.043 125.77 125.691c86.7656 17.293 171.121 -39.0234 188.414 -125.789zM413.492 319.09zM313.02 62.8164
c0.128906 0.136719 0.261719 0.265625 0.394531 0.394531c6.36328 6.14453 16.5039 5.96875 22.6523 -0.394531c6.14453 -6.36328 5.96875 -16.5039 -0.394531 -22.6484l-67.9375 -67.9531c-1.48047 -1.48047 -3.23828 -2.65625 -5.17188 -3.46094
c-3.94531 -1.66797 -8.39453 -1.66797 -12.3359 0c-1.93359 0.804688 -3.69141 1.98047 -5.17578 3.46094l-67.9375 67.9531c-0.132812 0.128906 -0.261719 0.257812 -0.394531 0.394531c-6.14453 6.36328 -5.96875 16.5039 0.394531 22.6484
c6.36328 6.14844 16.5078 5.97266 22.6523 -0.394531l40.6094 -40.6211v201.613c0 8.84766 7.17188 16.0195 16.0195 16.0195c8.84375 0 16.0156 -7.17188 16.0156 -16.0195v-201.613zM313.02 62.8164z" />
    </font>
</defs>
</svg>
